
<svg xmlns="http://www.w3.org/2000/svg" xmlns:xlink="http://www.w3.org/1999/xlink" width="839.38" height="300.858" viewBox="0 0 839.38 300.858"><defs><style>.a{fill:#e4f0f8;stroke:#dfeaf2;stroke-width:4px;}.b{fill:#a1b8d8;}.c{fill:#c3dafd;}.d{fill:#2b4c9f;}.e{fill:#213b82;}.f{fill:#77b0fb;}.g{fill:#84d9f3;}.h{fill:#8aaecb;}.i{fill:#fbf4f4;}.j{fill:#9fe04d;}.k{fill:#bfced9;}.l{fill:url(#a);}.m{fill:#e64d4e;}.n{fill:url(#b);}.o{fill:#f2dad4;}.p{fill:url(#c);}.q{fill:#192b59;}.r{fill:url(#d);}.s{fill:url(#e);}.t{fill:url(#f);}.u{fill:url(#g);}.v{fill:url(#h);}.w{fill:url(#i);}.x{fill:url(#j);}.y{fill:url(#l);}.z{opacity:0.5;}.aa{fill:#e0e4f0;}</style><linearGradient id="a" x1="0.5" y1="-0.227" x2="0.5" y2="0.559" gradientUnits="objectBoundingBox"><stop offset="0" stop-color="#e4f0f8"/><stop offset="0.476" stop-color="#e4f0f8" stop-opacity="0.608"/><stop offset="1" stop-color="#fff"/></linearGradient><linearGradient id="b" x1="0.276" y1="-0.498" x2="0.5" y2="0.639" gradientUnits="objectBoundingBox"><stop offset="0" stop-color="#4e9cff"/><stop offset="1" stop-color="#176ad4"/></linearGradient><linearGradient id="c" x1="0.768" y1="1.287" x2="0.359" y2="0.334" gradientUnits="objectBoundingBox"><stop offset="0" stop-color="#1d0633"/><stop offset="1" stop-color="#192b59"/></linearGradient><linearGradient id="d" y1="0.5" x2="1" y2="0.5" gradientUnits="objectBoundingBox"><stop offset="0" stop-color="#f2bfad"/><stop offset="1" stop-color="#f2dad4"/></linearGradient><linearGradient id="e" x1="0.265" y1="-0.23" x2="0.691" y2="0.944" xlink:href="#b"/><linearGradient id="f" x1="0.303" y1="-0.385" x2="0.526" y2="0.648" xlink:href="#d"/><linearGradient id="g" x1="0.419" y1="-0.145" x2="0.536" y2="0.837" gradientUnits="objectBoundingBox"><stop offset="0" stop-color="#4e9cff"/><stop offset="0.984" stop-color="#176ad4"/></linearGradient><linearGradient id="h" x1="0.103" y1="-0.049" x2="0.752" y2="0.905" xlink:href="#d"/><linearGradient id="i" x1="0.086" y1="0.016" x2="0.677" y2="0.759" xlink:href="#d"/><linearGradient id="j" x1="0.602" y1="0.368" x2="0.324" y2="0.911" xlink:href="#d"/><linearGradient id="l" x1="0.064" y1="-0.401" x2="0.687" y2="0.848" xlink:href="#g"/></defs><g transform="translate(-383 -562.402)"><rect class="a" width="115.284" height="115.284" rx="12.45" transform="translate(797 607)"/><g transform="translate(827 636)"><path class="b" d="M0,10.1H3.391V0H0Z" transform="translate(32.164 34.609) rotate(-45)"/><path class="c" d="M0,10.1H1.7V0H0Z" transform="translate(33.364 33.41) rotate(-45)"/><path class="d" d="M0,17.8H11.627V0H0Z" transform="translate(35.189 43.457) rotate(-45)"/><path class="e" d="M0,17.8H5.814V0H0Z" transform="translate(35.189 43.458) rotate(-45)"/><ellipse class="c" cx="20.066" cy="20.066" rx="20.066" ry="20.066" transform="translate(0.065 0.11)"/><path class="f" d="M282.75,405.891H255.618v3.391H282.75Z" transform="translate(-255.618 -360.006)"/><path class="g" d="M185.966,465.891H165.617v3.391h20.349Z" transform="translate(-148.66 -413.223)"/><path class="h" d="M145.473,12.268l-5.421-5.421A20.066,20.066,0,0,1,168.43,35.224L163.01,29.8h0l0,0a12.4,12.4,0,1,1-17.535-17.535Z" transform="translate(-134.11 -0.86)"/><path class="i" d="M225.361,72.378a12.391,12.391,0,0,0-17.537,0l17.535,17.535A12.392,12.392,0,0,0,225.361,72.378Z" transform="translate(-196.461 -60.972)"/><path class="j" d="M120.723,0V3.391h4.385l-16.941,16.94-5.2-5.2-9.086,9.086a12.381,12.381,0,0,0,1.634,3.162l7.451-7.451,5.2,5.2L127.506,5.79v4.385H130.9V0Z" transform="translate(-85.482)"/></g><g transform="translate(-510.808 -193.068)"><g transform="translate(1070.808 857.497)"><path class="k" d="M1816.847,924.642a3.253,3.253,0,0,0-6.428,1.005c.467,3.03,1.061,12.522-2.215,16.341a4.372,4.372,0,0,1-2.64,1.519l.3-18.079a4.7,4.7,0,1,0-9.4.039l.85,34.308a4.389,4.389,0,0,1-2.752-1.533c-3.275-3.819-2.681-13.311-2.214-16.341a3.253,3.253,0,0,0-6.428-1.005c-.234,1.493-2.114,14.784,3.7,21.573a11.014,11.014,0,0,0,7.861,3.864l.37,14.933h7.1l.515-31.2a10.992,10.992,0,0,0,7.7-3.852C1818.961,939.426,1817.081,926.135,1816.847,924.642Z" transform="translate(-1404.524 -923.649)"/><path class="k" d="M1163.877,980.055a2.074,2.074,0,0,0-4.1.641c.3,1.931.677,7.982-1.411,10.417a2.791,2.791,0,0,1-1.683.968l.19-11.525a3,3,0,1,0-5.993.025l.542,21.87a2.8,2.8,0,0,1-1.754-.977c-2.088-2.435-1.709-8.486-1.411-10.417a2.074,2.074,0,0,0-4.1-.641c-.149.952-1.348,9.424,2.355,13.752a7.021,7.021,0,0,0,5.011,2.464l.236,9.519h4.525l.328-19.889a7.006,7.006,0,0,0,4.906-2.456C1165.224,989.48,1164.026,981.007,1163.877,980.055Z" transform="translate(-1104.92 -950.202)"/><ellipse class="l" cx="234.096" cy="82.874" rx="234.096" ry="82.874" transform="translate(0 33.082)"/></g><g transform="translate(1146.718 785.412)"><path class="m" d="M1502.512,819.56c2.031-1.4,5.233-1.457,8.229-6.623,1.557-2.686,3.139-10.948.732-15.852-3.839-7.821-12.994-13.167-17.186-11.3-3.469,1.546,1.628,19.521,4.112,20.237S1502.512,819.56,1502.512,819.56Z" transform="translate(-1343.924 -785.412)"/><path class="n" d="M1440.646,883.191s-2.949,4.375-6.509,9.207c-3.807,5.168-6.165,6.89-10,6.942s-8.393,0-8.393,0l-.518,9.066,20.256,1.709,11.139-17.614Z" transform="translate(-1307.553 -831.072)"/><path class="o" d="M1356.358,967.89l-5.942,11.787,11.054.534,3.19-8.345Z" transform="translate(-1277.288 -870.624)"/><path class="p" d="M1399.447,926.09c1.364-1.858-14.106-27.475-20-31.054s-10.239.476-13.158,3.474-18.137,26.929-17.676,28.464,13.246,12.774,14.561,12.884,10.746-17.38,11.24-17.38,6.086,19.409,7.347,19.9S1398.457,927.439,1399.447,926.09Z" transform="translate(-1276.441 -835.949)"/><path class="o" d="M1245.9,994.683c-1.677-.41-8.873-3.616-11.259-6.039s-9.395,2.684-9.693,5.443,2.833,9.469,4.436,9.953,4.648,1.028,4.648,1.028l1.145-.58a30.263,30.263,0,0,1,5.766-.328c2.764.165,5.879.99,6.024.908S1245.9,994.683,1245.9,994.683Z" transform="translate(-1218.688 -880.02)"/><path class="q" d="M1355.137,953.045c-2.751,2.1-6.77,9.609-8.779,10.482a52,52,0,0,1-17.091,4.066c-9.186.711-37.2,8.262-43.582,9.017s-22.019.544-22.512,1.531.34,13.888,1.7,14.259,34.435-1.683,37.608-2.056,38.761,1.866,44.312,1.145,28.186.216,32.007-1.73,7.281-6.055,7.786-8.434-4.9-14.923-9.083-17.806S1355.137,953.045,1355.137,953.045Z" transform="translate(-1236.48 -863.692)"/><path class="r" d="M1377.949,907.964c-.573-1.322-1.372-3.618-3.094-4.616a21.463,21.463,0,0,1-3.942-2.794c-.349-.449-1.272-.274-1.9-.8s-1.6-1.248-2.121-.3,3.269,4.641,2.4,4.591a4.46,4.46,0,0,1-2.445-1.248c-.3-.4-1.4-1-2-.149a1.982,1.982,0,0,0,0,2.376c.449.593,2.788,4.112,2.338,3.862s-3.811-2.995-4.434-2.695-1.247,1.322-.849,1.9-.031,3.987.4,4.5,2.355,1.562,2.842,2.151,4.711,2.1,7.655,1.92,3.789-.333,4.685-.717S1377.949,907.964,1377.949,907.964Z" transform="translate(-1282.595 -838.452)"/><path class="s" d="M1458.727,858.246c-3.039,1.035-8.769,9.043-9.871,12.643s-3.967,16.676-4.482,20.717-5.656,12.122-7.2,12.636-2.939,1.028-1.91,2.278,27.476,25.786,30.414,28.137,4.628,3.526,5.583,2.791,11.02-30.635,11.828-34.6,6.171-23.582,6.024-29.166-.367-8.742-4.041-11.461-7.934-9.183-8.889-10.138S1458.727,858.246,1458.727,858.246Z" transform="translate(-1316.745 -816.504)"/><path class="t" d="M1471.047,841.068a9.983,9.983,0,0,1,3.267,4.483c.647,1.877,1.5,4.88,1.254,6.949s-3.351,6.123-2.772,5.875,10.342-5.543,13.611-7.281,7.4-3.557,7.24-5.088-1.489-5.047-1.489-6.909-5.378-2.524-8.646-1.7S1471.047,841.068,1471.047,841.068Z" transform="translate(-1333.619 -809.525)"/><path class="o" d="M1473.13,805.645c-2.57,1.589-4.885,2.692-4.736,3.914s1.7,2.111,1.074,2.778-4.333,7.7-3.555,8.628,5.814,4.37,9.48,4.592,8.628-4.332,9.591-3.888,5.666,1.148,7.48-.815,2.441-3.785,2-5c-.306-.842-1.666-1.074-3.184-.667a2.746,2.746,0,0,1-3.147-2.444,5.158,5.158,0,0,1,1.383-3.475c1.87-2.185-6.435-11.569-8.976-10.971a11.138,11.138,0,0,0-6.492,3.818C1472.89,803.435,1474.075,805.061,1473.13,805.645Z" transform="translate(-1331.172 -791.417)"/><path class="u" d="M1387.346,900.7c-.15,2.733-.046,6.6,1.754,6.924s18.234,3.739,22.9,4.8,18.235-.978,23.626-3.41,23.7-14.537,24.975-15.7c2.665-2.427,1.558-14.642-3.271-18.069s-13.7.519-17.546,4.465-13.089,18.068-17.969,18.8-17.475.587-20.483-.156-10.3-3.61-11.4-2.69A8.64,8.64,0,0,0,1387.346,900.7Z" transform="translate(-1294.51 -826.75)"/><path class="v" d="M1371.749,905.859c-.241-.381.582-.838,1.157-.877s1.373,1.616,1.251,1.825c-.162.278-1.15.115-1.739-.248A1.327,1.327,0,0,1,1371.749,905.859Z" transform="translate(-1287.23 -841.248)"/><path class="w" d="M1365.567,909.406c-.543-.18-1.482.822-1.659,1.231s.38,1.152.7,1.462,1.987,2.166,2.487,2.166,1.278-.294,1.278-.984S1365.977,909.542,1365.567,909.406Z" transform="translate(-1283.573 -843.304)"/><path class="x" d="M1362.358,917.645a1.609,1.609,0,0,0-.861,1.677c.5,1.19,3.224,2.29,3.837,2.553s1.765.744,2.144.175-.526-1.925-1.313-2.349-1.462-.773-1.642-1.182A1.965,1.965,0,0,0,1362.358,917.645Z" transform="translate(-1282.442 -847.135)"/><path class="r" d="M1364.793,925.4c-.693.184-.586,1.376-.354,1.594a9.44,9.44,0,0,0,2.684,1.58,6.154,6.154,0,0,0,2.343.082c.309-.2.232-1.175-.231-1.582s-2.221-.6-2.752-.925S1365.461,925.221,1364.793,925.4Z" transform="translate(-1283.754 -850.767)"/><path class="y" d="M1227.283,975.3c-1.968,1.506-3.6,3.426-4.642,3.329s-1.822-.219-1.822.535,4.045,9.087,6.067,9.645,2.824,0,2.824,0-.7,1.673-5.195,1.429-6.032-1.5-6.625-2.894-1.953-8.891-3.173-11.3-2.51-13.284-.279-16.875,3.417-4.776,4.707-4.742,2.58.035,2.929,1.5,7.81,15.69,7.636,16.666S1227.283,975.3,1227.283,975.3Z" transform="translate(-1213.221 -864.337)"/></g></g><g transform="translate(361.008 517.564)"><g class="z" transform="translate(835.56 250.562)"><circle class="aa" cx="10.437" cy="10.437" r="10.437" transform="translate(0 20.321) rotate(-76.778)"/></g><g class="z" transform="translate(537.491 48.48)"><path class="aa" d="M313.314,62A13.516,13.516,0,1,1,299.8,48.48,13.516,13.516,0,0,1,313.314,62Z" transform="translate(-286.281 -48.48)"/></g><g class="z" transform="translate(198.126 72.359)"><path class="aa" d="M127.448,79.247a6.888,6.888,0,1,1-6.888-6.888A6.888,6.888,0,0,1,127.448,79.247Z" transform="translate(-113.672 -72.359)"/></g><g class="z" transform="translate(663.575 102.278)"><path class="aa" d="M369.719,92.366a6.888,6.888,0,1,1-6.888-6.888A6.888,6.888,0,0,1,369.719,92.366Z" transform="translate(-355.943 -85.478)"/></g><g class="z" transform="translate(361.202 44.838)"><circle class="aa" cx="6.888" cy="6.888" r="6.888"/></g><g class="z" transform="translate(855.717 290.481)"><path class="aa" d="M465.5,221.71a2.827,2.827,0,1,1-2.828-2.827A2.828,2.828,0,0,1,465.5,221.71Z" transform="translate(-459.849 -218.883)"/></g><g class="z" transform="translate(648.075 65.419)"><path class="aa" d="M355.546,67.542a2.122,2.122,0,1,1-2.123-2.123A2.122,2.122,0,0,1,355.546,67.542Z" transform="translate(-351.301 -65.419)"/></g><g class="z" transform="translate(256.135 48.963)"><circle class="aa" cx="2.763" cy="2.763" r="2.763"/></g><g class="z" transform="translate(44.179 133.462)"><path class="aa" d="M51.529,111.879a3.675,3.675,0,1,1-3.675-3.674A3.675,3.675,0,0,1,51.529,111.879Z" transform="translate(-44.179 -108.205)"/></g><g class="z" transform="translate(848.107 182.21)"><path class="aa" d="M459.589,146.735a3.675,3.675,0,1,1-3.675-3.675A3.675,3.675,0,0,1,459.589,146.735Z" transform="translate(-452.239 -143.06)"/></g><g class="z" transform="translate(66.583 100.306)"><circle class="aa" cx="15.584" cy="15.584" r="15.584" transform="matrix(0.16, -0.987, 0.987, 0.16, 0, 30.766)"/></g><g class="z" transform="translate(30.267 296.064)"><path class="aa" d="M37.616,228.141a3.675,3.675,0,1,1-3.675-3.675A3.675,3.675,0,0,1,37.616,228.141Z" transform="translate(-30.267 -224.466)"/></g><g class="z" transform="translate(813.13 92.067)"><circle class="aa" cx="15.107" cy="15.107" r="15.107"/></g><g class="z" transform="translate(21.992 190.266)"><circle class="aa" cx="11.958" cy="11.958" r="11.958" transform="translate(0 9.152) rotate(-22.5)"/></g></g></g></svg>