<svg id="OBJECTS" xmlns="http://www.w3.org/2000/svg" viewBox="0 0 317.368 304.45"><defs><style>.cls-1{fill:#d8e4f0;}.cls-2{fill:#b4bad1;}.cls-3,.cls-6{fill:#f7ffff;}.cls-4{fill:#4a4f66;}.cls-5{fill:#19203b;}.cls-6{opacity:0.3;}</style></defs><title>contact-macbook</title><path class="cls-1" d="M210,298.4a9.521,9.521,0,0,1-12.291,5.4L6.046,229.174a9.521,9.521,0,0,1-5.4-12.291L49.962,90.229a9.521,9.521,0,0,1,12.291-5.4L253.916,159.46a9.521,9.521,0,0,1,5.4,12.291Z"/><rect class="cls-2" x="89.521" y="200.413" width="45.252" height="79.402" rx="1.266" ry="1.266" transform="translate(-152.295 257.491) rotate(-68.724)"/><rect class="cls-3" x="98.289" y="71.953" width="78.584" height="205.691" rx="9.242" ry="9.242" transform="translate(-75.226 239.576) rotate(-68.724)"/><path class="cls-3" d="M317.047,105.958h-0.01c1.032-2.794-.367-5.581-3.95-6.976L60.44,0.6c-3.582-1.395-6.5-.288-7.626,2.466l0,0-0.038.1c-0.013.034-.027,0.067-0.04,0.1l-1.85,4.75,1.639,0.978,4.2,53.616c0.408,5.205,4.722,11.015,9.588,12.909L258.1,150.2c4.865,1.895,11.973.533,15.793-3.026l39.352-36.656,1.873,0.389Z"/><path class="cls-4" d="M272.057,151.893c-3.821,3.559-10.928,4.92-15.793,3.026L64.473,80.236c-4.866-1.895-9.18-7.7-9.588-12.909L50.5,11.341c-0.408-5.205,3.239-7.914,8.1-6.02L311.25,103.7c4.866,1.895,5.72,6.357,1.9,9.915Z"/><polygon class="cls-5" points="182.544 60.037 182.544 60.037 62.328 13.225 66.382 74.526 162.35 111.896 162.351 111.896 259.891 149.878 304.333 107.461 182.544 60.037"/><rect class="cls-4" x="154.026" y="39.844" width="10.167" height="165.397" transform="translate(-12.815 226.343) rotate(-68.724)"/><rect class="cls-4" x="62.512" y="108.365" width="5.071" height="11.411" rx="1.266" ry="1.266" transform="translate(-64.851 133.293) rotate(-68.724)"/><rect class="cls-4" x="75.361" y="113.368" width="5.071" height="11.411" rx="1.266" ry="1.266" transform="translate(-61.327 148.454) rotate(-68.724)"/><rect class="cls-4" x="88.21" y="118.371" width="5.071" height="11.411" rx="1.266" ry="1.266" transform="translate(-57.803 163.615) rotate(-68.724)"/><rect class="cls-4" x="101.059" y="123.374" width="5.071" height="11.411" rx="1.266" ry="1.266" transform="translate(-54.278 178.776) rotate(-68.724)"/><rect class="cls-4" x="113.907" y="128.378" width="5.071" height="11.411" rx="1.266" ry="1.266" transform="translate(-50.754 193.936) rotate(-68.724)"/><rect class="cls-4" x="126.756" y="133.381" width="5.071" height="11.411" rx="1.266" ry="1.266" transform="translate(-47.23 209.097) rotate(-68.724)"/><rect class="cls-4" x="139.605" y="138.384" width="5.071" height="11.411" rx="1.266" ry="1.266" transform="translate(-43.706 224.258) rotate(-68.724)"/><rect class="cls-4" x="152.453" y="143.387" width="5.071" height="11.411" rx="1.266" ry="1.266" transform="translate(-40.181 239.419) rotate(-68.724)"/><rect class="cls-4" x="165.302" y="148.391" width="5.071" height="11.411" rx="1.266" ry="1.266" transform="translate(-36.657 254.58) rotate(-68.724)"/><rect class="cls-4" x="178.151" y="153.394" width="5.071" height="11.411" rx="1.266" ry="1.266" transform="translate(-33.132 269.743) rotate(-68.725)"/><rect class="cls-4" x="191" y="158.397" width="5.071" height="11.411" rx="1.266" ry="1.266" transform="translate(-29.609 284.901) rotate(-68.724)"/><rect class="cls-4" x="203.848" y="163.4" width="5.071" height="11.411" rx="1.266" ry="1.266" transform="translate(-26.084 300.062) rotate(-68.724)"/><rect class="cls-4" x="216.697" y="168.403" width="5.071" height="11.411" rx="1.266" ry="1.266" transform="translate(-22.56 315.223) rotate(-68.724)"/><rect class="cls-4" x="229.546" y="173.407" width="5.071" height="11.411" rx="1.266" ry="1.266" transform="translate(-19.036 330.384) rotate(-68.724)"/><rect class="cls-4" x="56.814" y="118.112" width="8.875" height="11.411" rx="1.266" ry="1.266" transform="translate(-76.352 135.967) rotate(-68.724)"/><rect class="cls-4" x="69.663" y="123.115" width="8.875" height="11.411" rx="1.266" ry="1.266" transform="translate(-72.828 151.128) rotate(-68.724)"/><rect class="cls-4" x="82.512" y="128.118" width="8.875" height="11.411" rx="1.266" ry="1.266" transform="translate(-69.304 166.288) rotate(-68.724)"/><rect class="cls-4" x="95.361" y="133.121" width="8.875" height="11.411" rx="1.266" ry="1.266" transform="translate(-65.779 181.449) rotate(-68.724)"/><rect class="cls-4" x="108.209" y="138.125" width="8.875" height="11.411" rx="1.266" ry="1.266" transform="translate(-62.255 196.61) rotate(-68.724)"/><rect class="cls-4" x="121.058" y="143.128" width="8.875" height="11.411" rx="1.266" ry="1.266" transform="translate(-58.731 211.771) rotate(-68.724)"/><rect class="cls-4" x="133.907" y="148.131" width="8.875" height="11.411" rx="1.266" ry="1.266" transform="translate(-55.207 226.932) rotate(-68.724)"/><rect class="cls-4" x="146.755" y="153.134" width="8.875" height="11.411" rx="1.266" ry="1.266" transform="translate(-51.682 242.092) rotate(-68.724)"/><rect class="cls-4" x="159.604" y="158.138" width="8.875" height="11.411" rx="1.266" ry="1.266" transform="translate(-48.158 257.253) rotate(-68.724)"/><rect class="cls-4" x="172.453" y="163.141" width="8.875" height="11.411" rx="1.266" ry="1.266" transform="translate(-44.634 272.414) rotate(-68.724)"/><rect class="cls-4" x="185.302" y="168.144" width="8.875" height="11.411" rx="1.266" ry="1.266" transform="translate(-41.108 287.577) rotate(-68.725)"/><rect class="cls-4" x="198.15" y="173.147" width="8.875" height="11.411" rx="1.266" ry="1.266" transform="translate(-37.585 302.735) rotate(-68.724)"/><rect class="cls-4" x="217.424" y="173.758" width="8.875" height="25.2" rx="1.266" ry="1.266" transform="translate(-32.299 325.477) rotate(-68.724)"/><rect class="cls-4" x="58.134" y="125.445" width="8.875" height="23.623" rx="1.266" ry="1.266" transform="translate(-88.035 145.759) rotate(-68.724)"/><rect class="cls-4" x="78.141" y="139.342" width="8.875" height="11.411" rx="1.266" ry="1.266" transform="translate(-82.547 169.367) rotate(-68.724)"/><rect class="cls-4" x="90.99" y="144.345" width="8.875" height="11.411" rx="1.266" ry="1.266" transform="matrix(0.363, -0.932, 0.932, 0.363, -79.023, 184.528)"/><rect class="cls-4" x="103.839" y="149.349" width="8.875" height="11.411" rx="1.266" ry="1.266" transform="translate(-75.499 199.689) rotate(-68.724)"/><rect class="cls-4" x="116.688" y="154.352" width="8.875" height="11.411" rx="1.266" ry="1.266" transform="matrix(0.363, -0.932, 0.932, 0.363, -71.974, 214.849)"/><rect class="cls-4" x="129.536" y="159.355" width="8.875" height="11.411" rx="1.266" ry="1.266" transform="translate(-68.45 230.01) rotate(-68.724)"/><rect class="cls-4" x="142.385" y="164.358" width="8.875" height="11.411" rx="1.266" ry="1.266" transform="translate(-64.926 245.171) rotate(-68.724)"/><rect class="cls-4" x="155.234" y="169.362" width="8.875" height="11.411" rx="1.266" ry="1.266" transform="translate(-61.402 260.332) rotate(-68.724)"/><rect class="cls-4" x="168.083" y="174.365" width="8.875" height="11.411" rx="1.266" ry="1.266" transform="translate(-57.877 275.493) rotate(-68.724)"/><rect class="cls-4" x="180.931" y="179.368" width="8.875" height="11.411" rx="1.266" ry="1.266" transform="translate(-54.352 290.656) rotate(-68.725)"/><rect class="cls-4" x="193.78" y="184.371" width="8.875" height="11.411" rx="1.266" ry="1.266" transform="translate(-50.829 305.814) rotate(-68.724)"/><rect class="cls-4" x="50.215" y="139.095" width="8.875" height="16.007" rx="1.266" ry="1.266" transform="translate(-102.252 144.65) rotate(-68.724)"/><rect class="cls-4" x="65.353" y="147.288" width="8.875" height="11.411" rx="1.266" ry="1.266" transform="translate(-98.1 162.512) rotate(-68.724)"/><rect class="cls-4" x="78.201" y="152.291" width="8.875" height="11.411" rx="1.266" ry="1.266" transform="translate(-94.575 177.675) rotate(-68.725)"/><rect class="cls-4" x="91.05" y="157.294" width="8.875" height="11.411" rx="1.266" ry="1.266" transform="translate(-91.051 192.834) rotate(-68.724)"/><rect class="cls-4" x="103.899" y="162.298" width="8.875" height="11.411" rx="1.266" ry="1.266" transform="translate(-87.527 207.995) rotate(-68.724)"/><rect class="cls-4" x="116.748" y="167.301" width="8.875" height="11.411" rx="1.266" ry="1.266" transform="translate(-84.003 223.156) rotate(-68.724)"/><rect class="cls-4" x="129.597" y="172.304" width="8.875" height="11.411" rx="1.266" ry="1.266" transform="translate(-80.478 238.317) rotate(-68.724)"/><rect class="cls-4" x="142.445" y="177.307" width="8.875" height="11.411" rx="1.266" ry="1.266" transform="translate(-76.954 253.477) rotate(-68.724)"/><rect class="cls-4" x="155.294" y="182.31" width="8.875" height="11.411" rx="1.266" ry="1.266" transform="translate(-73.43 268.638) rotate(-68.724)"/><rect class="cls-4" x="168.143" y="187.314" width="8.875" height="11.411" rx="1.266" ry="1.266" transform="translate(-69.906 283.799) rotate(-68.724)"/><rect class="cls-4" x="180.991" y="192.317" width="8.875" height="11.411" rx="1.266" ry="1.266" transform="translate(-66.381 298.96) rotate(-68.724)"/><rect class="cls-4" x="193.84" y="197.32" width="8.875" height="11.411" rx="1.266" ry="1.266" transform="translate(-62.857 314.121) rotate(-68.724)"/><path class="cls-4" d="M221.388,194.337l-2.359-.919-8.274-3.222a1.27,1.27,0,0,0-1.639.72l-2.3,5.911a1.27,1.27,0,0,0,.72,1.639l0.742,0.289a1.27,1.27,0,0,1,.72,1.639l-3.452,8.865a1.27,1.27,0,0,0,.72,1.639l5.173,2.014,2.359,0.919,0.742,0.289,2.359,0.919,5.173,2.014a1.27,1.27,0,0,0,1.639-.72l3.452-8.865,0.891-2.287,0.891-2.287,1.439-3.7a1.27,1.27,0,0,0-.72-1.639Z"/><rect class="cls-4" x="43.704" y="151.783" width="8.874" height="11.411" rx="1.266" ry="1.266" transform="translate(-116.082 145.202) rotate(-68.724)"/><rect class="cls-4" x="56.552" y="156.786" width="8.874" height="11.411" rx="1.266" ry="1.266" transform="translate(-112.558 160.363) rotate(-68.724)"/><rect class="cls-4" x="69.401" y="161.789" width="8.874" height="11.411" rx="1.266" ry="1.266" transform="translate(-109.034 175.524) rotate(-68.724)"/><rect class="cls-4" x="82.25" y="166.792" width="8.874" height="11.411" rx="1.266" ry="1.266" transform="translate(-105.509 190.685) rotate(-68.724)"/><rect class="cls-4" x="95.099" y="171.796" width="8.874" height="11.411" rx="1.266" ry="1.266" transform="translate(-101.985 205.845) rotate(-68.724)"/><rect class="cls-4" x="107.947" y="176.799" width="8.874" height="11.411" rx="1.266" ry="1.266" transform="translate(-98.461 221.006) rotate(-68.724)"/><rect class="cls-4" x="120.796" y="181.802" width="8.874" height="11.411" rx="1.266" ry="1.266" transform="translate(-94.937 236.167) rotate(-68.724)"/><rect class="cls-4" x="133.645" y="186.805" width="8.874" height="11.411" rx="1.266" ry="1.266" transform="translate(-91.412 251.328) rotate(-68.724)"/><rect class="cls-4" x="146.494" y="191.809" width="8.874" height="11.411" rx="1.266" ry="1.266" transform="translate(-87.888 266.489) rotate(-68.724)"/><rect class="cls-4" x="159.343" y="196.812" width="8.874" height="11.411" rx="1.266" ry="1.266" transform="translate(-84.364 281.65) rotate(-68.724)"/><rect class="cls-4" x="172.191" y="201.815" width="8.874" height="11.411" rx="1.266" ry="1.266" transform="translate(-80.84 296.81) rotate(-68.724)"/><rect class="cls-4" x="185.04" y="206.818" width="8.874" height="11.411" rx="1.266" ry="1.266" transform="translate(-77.315 311.971) rotate(-68.724)"/><rect class="cls-4" x="204.313" y="207.429" width="8.874" height="25.2" rx="1.266" ry="1.266" transform="translate(-72.029 334.713) rotate(-68.724)"/><rect class="cls-4" x="39.333" y="163.006" width="8.875" height="11.411" rx="1.266" ry="1.266" transform="translate(-129.325 148.281) rotate(-68.724)"/><rect class="cls-4" x="52.182" y="168.009" width="8.875" height="11.411" rx="1.266" ry="1.266" transform="translate(-125.801 163.441) rotate(-68.724)"/><rect class="cls-4" x="65.03" y="173.012" width="8.875" height="11.411" rx="1.266" ry="1.266" transform="translate(-122.276 178.602) rotate(-68.724)"/><rect class="cls-4" x="77.879" y="178.016" width="8.875" height="11.411" rx="1.266" ry="1.266" transform="translate(-118.752 193.763) rotate(-68.724)"/><path class="cls-4" d="M103.272,187.119l-1.622-.632-1.623-.632-7.388-2.877A1.27,1.27,0,0,0,91,183.7l-2.3,5.911a1.27,1.27,0,0,0,.72,1.639l7.388,2.877,1.623,0.632,1.622,0.632,48.15,18.749a1.27,1.27,0,0,0,1.639-.72l2.3-5.911a1.27,1.27,0,0,0-.72-1.639Z"/><rect class="cls-4" x="154.972" y="208.035" width="8.875" height="11.411" rx="1.266" ry="1.266" transform="translate(-97.607 284.728) rotate(-68.724)"/><rect class="cls-4" x="167.82" y="213.038" width="8.875" height="11.411" rx="1.266" ry="1.266" transform="translate(-94.082 299.889) rotate(-68.724)"/><rect class="cls-4" x="180.669" y="218.041" width="8.875" height="11.411" rx="1.266" ry="1.266" transform="translate(-90.558 315.049) rotate(-68.724)"/><rect class="cls-4" x="197.236" y="220.503" width="3.419" height="11.411" rx="1.266" ry="1.266" transform="translate(-84.033 329.517) rotate(-68.725)"/><rect class="cls-4" x="195.256" y="225.588" width="3.418" height="11.411" rx="1.266" ry="1.266" transform="translate(-90.034 330.908) rotate(-68.724)"/><rect class="cls-4" x="206.367" y="228.048" width="8.875" height="11.411" rx="1.266" ry="1.266" transform="matrix(0.363, -0.932, 0.932, 0.363, -83.51, 345.371)"/><path class="cls-6" d="M66.382,74.526L79.8,79.753c28.705-.9,92.165-2.887,141.96-4.444L182.544,60.037h0L62.328,13.225Z"/></svg>