<svg id="Layer_1" data-name="Layer 1" xmlns="http://www.w3.org/2000/svg" xmlns:xlink="http://www.w3.org/1999/xlink" viewBox="0 0 529.94 439.984"><defs><style>.cls-1{fill:none;}.cls-2{fill:#f0f0f0;}.cls-3{clip-path:url(#clip-path);}.cls-4{fill:url(#linear-gradient);}.cls-5{clip-path:url(#clip-path-2);}.cls-6{fill:url(#linear-gradient-3);}.cls-7,.cls-8{fill:#fff;}.cls-8{stroke:#e3e5e8;stroke-miterlimit:10;}.cls-9{fill:#e0e4f0;}.cls-10{fill:#00bfd8;}.cls-11{fill:#ffcebd;}.cls-12{fill:#4d5068;}.cls-13{fill:#373f5c;}.cls-14{fill:#212839;}.cls-15{fill:#007c86;}.cls-16{fill:#ffd04d;}.cls-17{fill:#ced4e0;}.cls-18{fill:#ffd364;}.cls-19{fill:#f0f2f7;}</style><clipPath id="clip-path" transform="translate(2.702 -2.146)"><path class="cls-1" d="M342.031,185.68C257.041,134.324,216.938-23.454,85.745,70.83S8.953,358.823,134.671,405.672s287.468,20.383,332.986-66.648C545.435,190.314,399.039,220.129,342.031,185.68Z"/></clipPath><linearGradient id="linear-gradient" x1="18.977" y1="206.885" x2="498.834" y2="206.885" gradientTransform="matrix(1, 0, 0, -1, 0, 432)" gradientUnits="userSpaceOnUse"><stop offset="0" stop-color="#00bfc2"/><stop offset="0.246" stop-color="#00bbc5"/><stop offset="0.49" stop-color="#00afcf"/><stop offset="0.732" stop-color="#009bdf"/><stop offset="0.972" stop-color="#0080f5"/><stop offset="1" stop-color="#007cf8"/></linearGradient><clipPath id="clip-path-2" transform="translate(2.702 -2.146)"><path class="cls-1" d="M350.921,175.823C265.948,124.468,225.836-33.31,94.643,60.974S17.851,348.967,143.571,395.816,431.039,416.2,476.558,329.168C554.335,180.458,407.936,210.273,350.921,175.823Z"/></clipPath><linearGradient id="linear-gradient-3" x1="6.201" y1="144.679" x2="527.238" y2="144.679" xlink:href="#linear-gradient"/></defs><title>details-1</title><path class="cls-2" d="M342.031,185.68C257.041,134.324,216.938-23.454,85.745,70.83S8.953,358.823,134.671,405.672s287.468,20.383,332.986-66.648C545.435,190.314,399.039,220.129,342.031,185.68Z" transform="translate(2.702 -2.146)"/><path class="cls-2" d="M342.031,185.68C257.041,134.324,216.938-23.454,85.745,70.83S8.953,358.823,134.671,405.672s287.468,20.383,332.986-66.648C545.435,190.314,399.039,220.129,342.031,185.68Z" transform="translate(2.702 -2.146)"/><g class="cls-3"><path class="cls-2" d="M-2.7,368.221s72.47-72.67,193.512-38.193,192.307,4.928,177.278-177.8c0,0,170.128,23.736,148.316,144.622C489.935,443.562,148.253,499.543-2.7,368.221Z" transform="translate(2.702 -2.146)"/></g><path class="cls-4" d="M350.921,175.823C265.948,124.468,225.836-33.31,94.643,60.974S17.851,348.967,143.571,395.816,431.039,416.2,476.558,329.168C554.335,180.458,407.936,210.273,350.921,175.823Z" transform="translate(2.702 -2.146)"/><path class="cls-4" d="M350.921,175.823C265.948,124.468,225.836-33.31,94.643,60.974S17.851,348.967,143.571,395.816,431.039,416.2,476.558,329.168C554.335,180.458,407.936,210.273,350.921,175.823Z" transform="translate(2.702 -2.146)"/><g class="cls-5"><path class="cls-6" d="M6.2,358.365s72.47-72.67,193.512-38.193,192.307,4.928,177.278-177.8c0,0,170.128,23.736,148.316,144.622C498.833,433.706,157.151,489.686,6.2,358.365Z" transform="translate(2.702 -2.146)"/></g><path class="cls-7" d="M207.522,243.9l-1.148-3.29-1.148,3.29a11.485,11.485,0,0,1-6.379,6.5h0a11.482,11.482,0,0,1,6.379,6.5l1.148,3.29,1.148-3.29a11.485,11.485,0,0,1,6.389-6.493h0A11.485,11.485,0,0,1,207.522,243.9Z" transform="translate(2.702 -2.146)"/><path class="cls-7" d="M156.09,342.446l-1.148-3.29-1.136,3.29a11.485,11.485,0,0,1-6.379,6.5h0a11.485,11.485,0,0,1,6.379,6.5l1.148,3.29,1.148-3.29a11.482,11.482,0,0,1,6.379-6.5h0A11.482,11.482,0,0,1,156.09,342.446Z" transform="translate(2.702 -2.146)"/><path class="cls-7" d="M250.379,361.051l-0.759-2.171-0.756,2.171a7.577,7.577,0,0,1-4.209,4.285h0a7.577,7.577,0,0,1,4.209,4.285l0.756,2.171,0.759-2.171a7.577,7.577,0,0,1,4.209-4.285h0A7.577,7.577,0,0,1,250.379,361.051Z" transform="translate(2.702 -2.146)"/><path class="cls-7" d="M122.483,191.82l-0.759-2.171-0.756,2.171a7.574,7.574,0,0,1-4.209,4.285h0a7.577,7.577,0,0,1,4.209,4.285l0.756,2.171,0.759-2.171a7.577,7.577,0,0,1,4.209-4.285h0A7.577,7.577,0,0,1,122.483,191.82Z" transform="translate(2.702 -2.146)"/><rect class="cls-8" x="5.579" y="0.5" width="284.321" height="167.124" rx="3.463" ry="3.463"/><rect class="cls-9" x="33.42" y="19.203" width="114.32" height="10.178"/><rect class="cls-10" x="33.42" y="41.095" width="57.16" height="10.178"/><path class="cls-9" d="M18.117,146.314c9.348-12.675,19.405-28.952,30.108-40.506,3.771-4.071,8.042-8.295,13.529-9.122,7.748-1.168,14.574,4.732,20.294,10.087,6.84,6.4,14.345,12.875,23.554,14.591,11.343,2.113,22.575-3.419,32.692-8.964,8.814-4.831,17.777-9.991,24.044-17.849,6.034-7.566,9.414-17.441,17.2-23.19a9.923,9.923,0,0,1,4.608-2.094c2.936-.346,5.732,1.41,7.793,3.529,5.39,5.539,7.321,13.452,10.113,20.659s7.5,14.691,15.035,16.392c9.813,2.214,18.7-6.418,23.691-15.15s8.887-18.974,17.6-24c2.693-1.554,6.18-2.461,8.839-.851,2.934,1.777,3.547,5.7,3.86,9.112q1.949,21.262,3.9,42.524c0.54,5.888.939,20-2.472,24.835H18.117Z" transform="translate(2.702 -2.146)"/><path class="cls-11" d="M316.6,411.987l-13.911,6.185-22.237,5.691a6.29,6.29,0,0,0-4.91,6.136h0l64.9-.278-1.591-11.377-9.271-6.357H316.6Z" transform="translate(2.702 -2.146)"/><path class="cls-12" d="M310.194,423.184l-7.5-5.012-21.783,3.682c-2.871.645-5.364,5.2-5.364,8.145h0l64.9-.278-1.591-11.377-5.3,4.636L324.3,422.9C320.029,423.708,314.02,425.271,310.194,423.184Z" transform="translate(2.702 -2.146)"/><polygon class="cls-11" points="338.872 416.199 319.303 411.249 319.303 384.264 338.872 384.264 338.872 416.199"/><path class="cls-13" d="M474.3,337.574S350.319,292.75,335.878,298.3c0,0-18.489-.019-22.418,29.421l0.715,63.547h24.3l6.408-48.513a5.164,5.164,0,0,1,7.426-2.922l74.929,41.747Z" transform="translate(2.702 -2.146)"/><path class="cls-13" d="M407.991,348.941l-74.957,46.183a15.063,15.063,0,0,0-7.162,12.824v4.435A17.616,17.616,0,0,0,343.488,430l101.853-5.033V395.3s31.219-12.155,29.669-38.145Z" transform="translate(2.702 -2.146)"/><polygon class="cls-11" points="453.517 390.513 504.732 427.854 504.732 427.854 448.044 422.821 448.044 393.153 453.517 390.513"/><path class="cls-12" d="M450.815,392.658l-5.474,2.64v12.715h0a11.418,11.418,0,0,1,10.721.426l25.206,19.213A11.472,11.472,0,0,0,488.221,430H502.03Z" transform="translate(2.702 -2.146)"/><path class="cls-11" d="M400.309,177.552s12.1,23.178,2.782,36.953l32.981-3.055-13.182-41.943Z" transform="translate(2.702 -2.146)"/><path class="cls-14" d="M426.34,166.113a27.983,27.983,0,0,0-2.817-7.575c-3.6-7.393-7.451-15.1-14.138-19.882-2.94-2.1-6.341-3.568-9.013-6l-1.943,1.185-3.579.619a10.8,10.8,0,0,0-8.068,6.418,9.286,9.286,0,0,0,2.049,9.934c1.579,1.5,3.658,2.319,5.56,3.377A24.212,24.212,0,0,1,404,164.041a36.108,36.108,0,0,0,2.376,4.409c3,4.181,8.523,5.5,13.564,6.518a5.719,5.719,0,0,0,2.879.082,4.061,4.061,0,0,0,1.769-1.279A9.448,9.448,0,0,0,426.34,166.113Z" transform="translate(2.702 -2.146)"/><path class="cls-11" d="M425.237,157.064a138.244,138.244,0,0,0-8.845-14.178,9.4,9.4,0,0,0-8.148-4.7,74.692,74.692,0,0,0-11.951-.392l-0.616.858a52.963,52.963,0,0,0-2.53,8.783c-0.644,3.173-5.358,10.7-5.685,13.937-0.048.48,4.2,0.96,4.153,1.441-0.16,1.713-.3,3.428-0.437,5.136-0.258,3.195-.513,2.15.152,5.285s2.4,6.2,5.22,7.711c3.184,1.706,7.086,1.167,10.562.185a47.73,47.73,0,0,0,13.76-6.4c3.54-2.4,7.02-5.815,7.063-10.09C427.963,161.927,426.58,159.423,425.237,157.064Z" transform="translate(2.702 -2.146)"/><path class="cls-15" d="M450.318,222.005C443.441,243.234,481.9,357.418,481.9,357.418c-16.423,21.722-56.048-8.742-81.588-3.179,0,0,.269-47.947-9.4-69.4L377.892,263.63a13.888,13.888,0,0,1,.619-15.451l24.579-33.673,35.2-13.361a7.412,7.412,0,0,1,8.315,2.174h0A19.7,19.7,0,0,1,450.318,222.005Z" transform="translate(2.702 -2.146)"/><path class="cls-14" d="M456.759,219.063c0.616-15.775-5.045-31.186-5.458-46.968-0.321-12.253,2.182-25.849-5.086-35.718-6-8.144-16.956-10.946-27.069-11.135a37.087,37.087,0,0,0-14.563,2.168,23.918,23.918,0,0,0-7.639,5.128c-1.183,1.171-2.485,2.247-1.911,3.816,0.515,1.409,2.962,2.667,4.249,3.161,1.826,0.7,3.816.841,5.7,1.381,4.467,1.284,4.767,4.571,5.364,8.63a120.344,120.344,0,0,1,1.239,14.356,35.9,35.9,0,0,0,.406,5.635,11.906,11.906,0,0,0,.82,2.7c1.43,3.183,4.4,5.345,7.09,7.563,2.176,1.791,4.927,4.2,5.569,7.093,0.747,3.368-.558,7.012.355,10.527,1.472,5.669,6.546,9.511,10.25,14.049,5.512,6.754,8.15,15.487,8.934,24.171s7.929,19.445,9.342,26.087C460.467,248.075,456.176,233.995,456.759,219.063Z" transform="translate(2.702 -2.146)"/><path class="cls-11" d="M289.926,171.373l31.494,65.777a8.731,8.731,0,0,0,7.088,4.925l76.446,6.914a12.748,12.748,0,0,0,13.873-13.483h0a12.749,12.749,0,0,0-12-11.941l-72.564-4.131-33.489-52.838-1.268-8.213-6.472-11.514-1.245-1.085-2.278,4.536,0.655,0.616-0.392,3.246-9.727-7.227-13.08-9.876c-0.809.189-1.631,2.15-1.492,2.969l10.109,9.76-0.773,1.264-12.253-10.7c-0.845.166-1.695,2.23-1.547,3.079l11.976,11.387-1.157,1.469-11.266-9.5c-0.572.117-1.146,1.513-1.05,2.089l10.3,10.062a1.256,1.256,0,0,1-.58,1.017l-10.084-7.483c-2.3.348-1.453,2.451-1.354,2.839l19.152,13.275a13.837,13.837,0,0,0,7.128,2.445Z" transform="translate(2.702 -2.146)"/><path class="cls-15" d="M423.3,234.873a13.683,13.683,0,0,0-12.879-12.817l-38.4-5.164c-6.449,5.179,3.84,22.928-2.777,32.968l39.168-.515A13.683,13.683,0,0,0,423.3,234.873Z" transform="translate(2.702 -2.146)"/><rect class="cls-10" x="33.42" y="61.761" width="96.349" height="10.178"/><g id="_Group_" data-name="&lt;Group&gt;"><g id="_Group_2" data-name="&lt;Group&gt;"><g id="_Group_3" data-name="&lt;Group&gt;"><g id="_Group_4" data-name="&lt;Group&gt;"><path id="_Rectangle_" data-name="&lt;Rectangle&gt;" class="cls-16" d="M347.143,58.772h63.309a2.794,2.794,0,0,1,2.794,2.794V99.677a1.882,1.882,0,0,1-1.882,1.882H346a1.866,1.866,0,0,1-1.866-1.866V61.786A3.014,3.014,0,0,1,347.143,58.772Z" transform="translate(760.078 158.186) rotate(180)"/></g></g><g id="_Group_5" data-name="&lt;Group&gt;"><g id="_Group_6" data-name="&lt;Group&gt;"><path id="_Path_" data-name="&lt;Path&gt;" class="cls-16" d="M344.911,60.318l28.94-23.58a8.512,8.512,0,0,1,10.044,0L411.26,59.361Z" transform="translate(2.702 -2.146)"/></g></g><g id="_Group_7" data-name="&lt;Group&gt;"><g id="_Group_8" data-name="&lt;Group&gt;"><g id="_Group_9" data-name="&lt;Group&gt;"><path id="_Path_2" data-name="&lt;Path&gt;" class="cls-8" d="M364.281,26.044l-10.126,9.833V89.86h47.955V30.107a4.063,4.063,0,0,0-4.063-4.063H364.281Z" transform="translate(2.702 -2.146)"/></g></g><g id="_Group_10" data-name="&lt;Group&gt;"><g id="_Group_11" data-name="&lt;Group&gt;"><polygon id="_Path_3" data-name="&lt;Path&gt;" class="cls-9" points="366.382 32.71 356.857 43.603 356.857 33.731 366.382 32.71"/></g></g><g id="_Group_12" data-name="&lt;Group&gt;"><g id="_Group_13" data-name="&lt;Group&gt;"><path id="_Path_4" data-name="&lt;Path&gt;" class="cls-17" d="M364.281,26.044l-10.126,9.833h7.425a2.7,2.7,0,0,0,2.7-2.7V26.044Z" transform="translate(2.702 -2.146)"/></g></g></g><g id="_Group_14" data-name="&lt;Group&gt;"><g id="_Group_15" data-name="&lt;Group&gt;"><path id="_Path_5" data-name="&lt;Path&gt;" class="cls-18" d="M346.131,101.728s26.693-18.621,26.693-20.308l-27.913-21.1a15.939,15.939,0,0,0-.782,5.521v34C344.129,101.4,345.273,101.505,346.131,101.728Z" transform="translate(2.702 -2.146)"/></g></g><g id="_Group_16" data-name="&lt;Group&gt;"><g id="_Group_17" data-name="&lt;Group&gt;"><path id="_Path_6" data-name="&lt;Path&gt;" class="cls-18" d="M411.753,101.728s-26.108-19.017-26.108-20.705l27.1-19.911s1.011,1.124,1.011,4.728v34C413.756,101.4,412.612,101.505,411.753,101.728Z" transform="translate(2.702 -2.146)"/></g></g><g id="_Group_18" data-name="&lt;Group&gt;"><g id="_Group_19" data-name="&lt;Group&gt;"><path id="_Path_7" data-name="&lt;Path&gt;" class="cls-16" d="M345.859,101.769l28.091-23.1a8.416,8.416,0,0,1,9.93,0l28.09,23.1H345.859Z" transform="translate(2.702 -2.146)"/></g></g><g id="_Group_20" data-name="&lt;Group&gt;"><g id="_Group_21" data-name="&lt;Group&gt;"><g id="_Group_22" data-name="&lt;Group&gt;"><path id="_Compound_Path_" data-name="&lt;Compound Path&gt;" class="cls-9" d="M384.612,60.872a13.154,13.154,0,0,1-6.423,1.443c-5.919,0-10.935-4.331-10.935-11.26,0-7.431,5.161-13.857,13.171-13.857,6.279,0,10.5,4.4,10.5,10.431,0,5.412-3.031,8.589-6.423,8.589-1.443,0-2.778-.976-2.671-3.176h-0.144a5.667,5.667,0,0,1-5.088,3.176c-2.093,0-3.9-1.7-3.9-4.548a8.519,8.519,0,0,1,8.552-8.55,9.487,9.487,0,0,1,3.862.758l-1.228,6.529c-0.541,2.744-.107,4.008,1.083,4.043,1.841,0.035,3.9-2.418,3.9-6.605,0-5.23-3.14-8.985-8.733-8.985-5.882,0-10.826,4.657-10.826,11.982,0,6.026,3.934,9.743,9.275,9.743a11.27,11.27,0,0,0,5.449-1.264Zm-1.985-15.587a6.221,6.221,0,0,0-1.8-.253c-3.176,0-5.738,2.994-5.738,6.494,0,1.59.795,2.744,2.382,2.744,2.093,0,4.006-2.671,4.4-4.91Z" transform="translate(2.702 -2.146)"/></g></g></g></g></g><rect class="cls-7" x="106.035" y="209.99" width="189.675" height="91.531" rx="2.662" ry="2.662"/><rect class="cls-19" x="122.646" y="229.294" width="6.069" height="61.604"/><rect class="cls-19" x="133.466" y="229.294" width="6.07" height="61.604"/><rect class="cls-19" x="144.286" y="229.294" width="6.07" height="61.604"/><rect class="cls-19" x="155.106" y="229.294" width="6.07" height="61.604"/><rect class="cls-19" x="165.926" y="229.294" width="6.07" height="61.604"/><rect class="cls-19" x="176.746" y="229.294" width="6.07" height="61.604"/><rect class="cls-19" x="187.566" y="229.294" width="6.07" height="61.604"/><rect class="cls-19" x="198.386" y="229.294" width="6.07" height="61.604"/><rect class="cls-19" x="209.206" y="229.294" width="6.069" height="61.604"/><rect class="cls-19" x="220.026" y="229.294" width="6.069" height="61.604"/><rect class="cls-19" x="230.846" y="229.294" width="6.069" height="61.604"/><rect class="cls-10" x="122.646" y="275.497" width="6.069" height="15.401"/><rect class="cls-10" x="133.466" y="260.096" width="6.07" height="30.802"/><rect class="cls-10" x="144.286" y="260.096" width="6.07" height="30.802"/><rect class="cls-10" x="155.106" y="240.529" width="6.07" height="50.369"/><rect class="cls-10" x="165.926" y="250.839" width="6.07" height="40.058"/><rect class="cls-10" x="176.746" y="276.939" width="6.07" height="13.959"/><rect class="cls-10" x="187.566" y="250.839" width="6.07" height="40.058"/><rect class="cls-10" x="198.386" y="272.387" width="6.07" height="18.511"/><rect class="cls-10" x="209.206" y="260.096" width="6.069" height="30.802"/><rect class="cls-10" x="220.026" y="248.412" width="6.069" height="42.486"/><rect class="cls-10" x="230.846" y="242.646" width="6.069" height="48.252"/><rect class="cls-10" x="244.118" y="232.631" width="39.453" height="6.069"/><rect class="cls-19" x="244.118" y="249.626" width="39.453" height="3.035"/><rect class="cls-19" x="244.118" y="257.061" width="39.453" height="3.035"/><rect class="cls-19" x="244.118" y="264.496" width="39.453" height="3.035"/><rect class="cls-19" x="244.118" y="271.932" width="19.726" height="3.035"/></svg>