<svg id="OBJECTS" xmlns="http://www.w3.org/2000/svg" xmlns:xlink="http://www.w3.org/1999/xlink" viewBox="0 0 521.043 431.649"><defs><style>.cls-1{fill:#f0f0f0;}.cls-2{clip-path:url(#clip-path);}.cls-3{fill:url(#linear-gradient);}.cls-4,.cls-8{fill:#fff;}.cls-5{fill:none;stroke:#aebfde;stroke-width:0.25px;}.cls-5,.cls-8{stroke-miterlimit:10;}.cls-6{fill:#00bed7;}.cls-7{fill:#ffd04d;}.cls-8{stroke:#e4e6ea;}.cls-9{fill:#ededed;}.cls-10{fill:#caccdb;}.cls-11{fill:url(#linear-gradient-2);}.cls-12{fill:#007cf8;}.cls-13{fill:#4d5068;}.cls-14{fill:#00bfc2;}.cls-15{fill:#fec55e;}.cls-16{fill:#007b85;}.cls-17{fill:#ffcebd;}.cls-18{fill:#404459;}.cls-19{fill:#252526;}.cls-20{fill:#393939;}.cls-21{fill:#8a4200;}.cls-22{fill:#bdc1c6;}.cls-23{fill:#dfe2e8;}.cls-24{fill:#c2c6cc;}.cls-25{opacity:0.29;}</style><clipPath id="clip-path" transform="translate(20.539 -1.524)"><path class="cls-1" d="M170.7,153.109C263.339,119.786,333.071-25.671,442.288,91.5S460.879,386.242,329.5,407.245,45.986,371.008,18.67,277.59C-28,117.961,108.553,175.463,170.7,153.109Z"/></clipPath><linearGradient id="linear-gradient" x1="108.094" y1="353.371" x2="601.38" y2="353.371" gradientTransform="matrix(-0.946, -0.19, -0.189, 0.945, 646.491, -57.358)" gradientUnits="userSpaceOnUse"><stop offset="0" stop-color="#00bfc2"/><stop offset="0.489" stop-color="#00bdc4"/><stop offset="0.665" stop-color="#00b6c9"/><stop offset="0.79" stop-color="#00abd4"/><stop offset="0.892" stop-color="#009ae2"/><stop offset="0.978" stop-color="#0084f5"/><stop offset="1" stop-color="#007dfb"/></linearGradient><linearGradient id="linear-gradient-2" x1="274.449" y1="45.325" x2="385.254" y2="45.325" gradientTransform="matrix(1, 0, 0, 1, 0, 0)" xlink:href="#linear-gradient"/></defs><title>details-2</title><path class="cls-1" d="M170.7,153.109C263.339,119.786,333.071-25.671,442.288,91.5S460.879,386.242,329.5,407.245,45.986,371.008,18.67,277.59C-28,117.961,108.553,175.463,170.7,153.109Z" transform="translate(20.539 -1.524)"/><g class="cls-2"><path class="cls-1" d="M470.382,397.643s-56.322-84.722-180.743-74.82S101.674,290.116,151.872,115.535c0,0-170.062-10.1-172.393,111.583C-23.349,374.8,298.014,495.789,470.382,397.643Z" transform="translate(20.539 -1.524)"/></g><path class="cls-3" d="M164.092,143.492C256.732,110.169,326.464-35.288,435.68,81.88s18.592,294.745-112.787,315.749S39.378,361.391,12.063,267.973C-34.612,108.344,101.946,165.846,164.092,143.492Z" transform="translate(20.539 -1.524)"/><path class="cls-4" d="M303.085,91.966l-0.938-2.687-0.938,2.687A9.381,9.381,0,0,1,296,97.272h0a9.381,9.381,0,0,1,5.211,5.306l0.938,2.686,0.938-2.686a9.381,9.381,0,0,1,5.211-5.306h0A9.381,9.381,0,0,1,303.085,91.966Z" transform="translate(20.539 -1.524)"/><path class="cls-4" d="M198.212,287.8l-0.938-2.687-0.938,2.687a9.381,9.381,0,0,1-5.211,5.305h0a9.382,9.382,0,0,1,5.211,5.306l0.938,2.686,0.938-2.686a9.38,9.38,0,0,1,5.211-5.306h0A9.38,9.38,0,0,1,198.212,287.8Z" transform="translate(20.539 -1.524)"/><path class="cls-4" d="M452.278,162.932l-0.619-1.772-0.619,1.772a6.19,6.19,0,0,1-3.438,3.5h0a6.19,6.19,0,0,1,3.438,3.5l0.619,1.772,0.619-1.772a6.189,6.189,0,0,1,3.438-3.5h0A6.189,6.189,0,0,1,452.278,162.932Z" transform="translate(20.539 -1.524)"/><path class="cls-4" d="M157.251,182.477l-0.619-1.772-0.619,1.772a6.188,6.188,0,0,1-3.438,3.5h0a6.189,6.189,0,0,1,3.438,3.5l0.619,1.772,0.619-1.772a6.19,6.19,0,0,1,3.438-3.5h0A6.189,6.189,0,0,1,157.251,182.477Z" transform="translate(20.539 -1.524)"/><path class="cls-5" d="M274.074,227.474" transform="translate(20.539 -1.524)"/><path class="cls-5" d="M268.409,144.184" transform="translate(20.539 -1.524)"/><rect class="cls-6" x="178.093" y="33.607" width="73.054" height="38.288" rx="1.96" ry="1.96"/><rect class="cls-4" x="181.75" y="36.706" width="4.247" height="2.155"/><rect class="cls-4" x="213.915" y="40.159" width="32.636" height="2.155"/><rect class="cls-4" x="213.915" y="46.237" width="32.636" height="2.155"/><rect class="cls-4" x="213.915" y="52.316" width="32.636" height="2.155"/><rect class="cls-4" x="213.915" y="58.394" width="18.699" height="2.155"/><rect class="cls-4" x="181.75" y="42.657" width="4.247" height="2.155"/><rect class="cls-4" x="181.75" y="48.609" width="4.247" height="2.155"/><rect class="cls-4" x="181.75" y="54.561" width="4.247" height="2.155"/><rect class="cls-4" x="181.75" y="60.512" width="4.247" height="2.155"/><rect class="cls-4" x="181.75" y="66.464" width="4.247" height="2.155"/><g id="_Group_" data-name="&lt;Group&gt;"><path id="_Path_" data-name="&lt;Path&gt;" class="cls-4" d="M179.8,38.837v10l0.005,0.005,7.054,7.073a9.964,9.964,0,0,0,2.937-7.049V48.834A10,10,0,0,0,179.8,38.837Z" transform="translate(20.539 -1.524)"/><path id="_Path_2" data-name="&lt;Path&gt;" class="cls-7" d="M172.257,41.756a9.964,9.964,0,0,0-2.937,7.059l10,0.024v-10A9.964,9.964,0,0,0,172.257,41.756Z" transform="translate(20.539 -1.524)"/><path id="_Path_3" data-name="&lt;Path&gt;" class="cls-4" d="M179.321,49.325h-0.005l-10-.024v0.019A10,10,0,0,0,186.375,56.4Z" transform="translate(20.539 -1.524)"/></g><rect class="cls-8" x="288.408" y="85.602" width="232.134" height="112.02" rx="2.662" ry="2.662"/><rect class="cls-9" x="308.738" y="109.227" width="7.428" height="75.395"/><rect class="cls-9" x="321.979" y="109.227" width="7.428" height="75.395"/><rect class="cls-9" x="335.221" y="109.227" width="7.429" height="75.395"/><rect class="cls-9" x="348.464" y="109.227" width="7.428" height="75.395"/><rect class="cls-9" x="361.706" y="109.227" width="7.428" height="75.395"/><rect class="cls-9" x="374.948" y="109.227" width="7.428" height="75.395"/><rect class="cls-9" x="388.19" y="109.227" width="7.428" height="75.395"/><rect class="cls-9" x="401.432" y="109.227" width="7.428" height="75.395"/><rect class="cls-9" x="414.674" y="109.227" width="7.428" height="75.395"/><rect class="cls-9" x="427.916" y="109.227" width="7.428" height="75.395"/><rect class="cls-9" x="441.158" y="109.227" width="7.428" height="75.395"/><rect class="cls-6" x="308.738" y="165.773" width="7.428" height="18.849"/><rect class="cls-6" x="321.979" y="146.924" width="7.428" height="37.697"/><rect class="cls-6" x="335.221" y="146.924" width="7.429" height="37.697"/><rect class="cls-6" x="348.464" y="122.978" width="7.428" height="61.644"/><rect class="cls-6" x="361.706" y="135.596" width="7.428" height="49.026"/><rect class="cls-6" x="374.948" y="167.538" width="7.428" height="17.084"/><rect class="cls-6" x="388.19" y="135.596" width="7.428" height="49.026"/><rect class="cls-6" x="401.432" y="161.967" width="7.428" height="22.655"/><rect class="cls-6" x="414.674" y="146.924" width="7.428" height="37.697"/><rect class="cls-6" x="427.916" y="132.625" width="7.428" height="51.997"/><rect class="cls-6" x="441.158" y="125.568" width="7.428" height="59.054"/><rect class="cls-6" x="457.402" y="113.311" width="48.284" height="7.428"/><rect class="cls-9" x="457.402" y="134.11" width="48.284" height="3.714"/><rect class="cls-9" x="457.402" y="143.21" width="48.284" height="3.714"/><rect class="cls-9" x="457.402" y="152.31" width="48.284" height="3.714"/><rect class="cls-9" x="457.402" y="161.409" width="24.142" height="3.714"/><rect class="cls-8" x="286.252" y="0.5" width="126.311" height="68.217"/><rect class="cls-10" x="286.252" y="0.5" width="126.311" height="15.205"/><path class="cls-11" d="M274.622,59.012H385.19c-0.169,0,.264-24.872-0.059-27.374-3.807,2-6.708,5.832-10.747,7.829a18.3,18.3,0,0,1-10.807,1.975c-3.408-.574-6.181-3.143-9.679-3.377-4.543-.3-7.62,3.4-10.865,5.937-4.555,3.566-10.334,7.891-16.2,8.786-3.786.577-6.842-1.117-9.195-3.967-3.048-3.691-4.606-7.045-9.775-7.755a16.193,16.193,0,0,0-11.771,2.965c-3.961,3.088-6.325,8.162-10.874,10.292a10.334,10.334,0,0,1-5.2.915c-1.16-.095-4.128-1.671-5.156-0.771C274.105,55.125,274.622,58,274.622,59.012Z" transform="translate(20.539 -1.524)"/><circle class="cls-4" cx="297.057" cy="8.008" r="1.665"/><circle class="cls-4" cx="304.796" cy="8.008" r="1.665"/><circle class="cls-4" cx="312.535" cy="8.008" r="1.665"/><g id="_Group_2" data-name="&lt;Group&gt;"><rect id="_Rectangle_" data-name="&lt;Rectangle&gt;" class="cls-8" x="46.013" y="23.48" width="57.764" height="57.764" rx="4.676" ry="4.676"/><path id="_Path_4" data-name="&lt;Path&gt;" class="cls-12" d="M77.538,25H31.173a5.7,5.7,0,0,0-5.7,5.7V42.337H83.237V30.7A5.7,5.7,0,0,0,77.538,25Z" transform="translate(20.539 -1.524)"/><g id="_Group_3" data-name="&lt;Group&gt;"><path id="_Compound_Path_" data-name="&lt;Compound Path&gt;" class="cls-13" d="M47.8,58.815a3.329,3.329,0,0,0,.7-1.907,2.115,2.115,0,0,0-.6-1.54,2.081,2.081,0,0,0-1.552-.617,3.416,3.416,0,0,0-2.559,1.46,1.448,1.448,0,0,1-1.847.349l-0.81-.479a1.44,1.44,0,0,1-.35-2.174,8.8,8.8,0,0,1,1.819-1.654,6.922,6.922,0,0,1,3.919-1.025,6.311,6.311,0,0,1,4.182,1.512,5.091,5.091,0,0,1,1.8,4.116,5.536,5.536,0,0,1-.723,2.722A17.856,17.856,0,0,1,49.1,62.9l-0.989,1.029a1.428,1.428,0,0,0,1.029,2.418h2.477a1.428,1.428,0,0,1,1.428,1.428V68.6a1.428,1.428,0,0,1-1.428,1.428H41.51A1.428,1.428,0,0,1,40.082,68.6V67.561a1.428,1.428,0,0,1,.406-1l4.986-5.106A23.64,23.64,0,0,0,47.8,58.815Z" transform="translate(20.539 -1.524)"/><path id="_Compound_Path_2" data-name="&lt;Compound Path&gt;" class="cls-13" d="M67.777,53.075V53.77A1.428,1.428,0,0,1,66.349,55.2h-4.4a1.428,1.428,0,0,0-1.428,1.428h0A1.415,1.415,0,0,0,62,58.046q0.191-.009.39-0.009a6.919,6.919,0,0,1,4.577,1.6,5.349,5.349,0,0,1,1.919,4.327,5.772,5.772,0,0,1-1.986,4.5,7.1,7.1,0,0,1-4.905,1.775A8.013,8.013,0,0,1,56.714,68.4a1.43,1.43,0,0,1-.23-1.929l1.43-1.987q0.237,0.236.632,0.577a8.618,8.618,0,0,0,1.446.908,4.407,4.407,0,0,0,2.1.565,2.964,2.964,0,0,0,1.867-.632,2.217,2.217,0,0,0,.816-1.867,2.256,2.256,0,0,0-.882-1.907,3.658,3.658,0,0,0-2.275-.67,6.621,6.621,0,0,0-2.914.831,1.43,1.43,0,0,1-.678.159h0a1.407,1.407,0,0,1-1.369-1.409l0.014-7.965A1.428,1.428,0,0,1,58.1,51.647h8.245A1.428,1.428,0,0,1,67.777,53.075Z" transform="translate(20.539 -1.524)"/></g></g><path class="cls-14" d="M113.937,141.683c-36.06,22.328-24.84,74.539-24.354,110.624q0.8,59.68,1.608,119.359c0.032,2.4-3.691,2.4-3.723,0q-0.961-71.324-1.922-142.649c-0.452-33.574-6.2-70.3,26.511-90.55,2.043-1.265,3.915,1.955,1.879,3.215h0Z" transform="translate(20.539 -1.524)"/><path class="cls-14" d="M93.913,159.845a45.468,45.468,0,0,1,5.817-9.88c3.752-4.49,8.977-7.447,14.083-10.305l0.75,0.4c2.949,7.669,4.481,16.081,2.945,24.153s-6.463,15.733-13.867,19.294c-5.432,2.612-11.851,2.953-16.92,6.214C85.287,179.425,89.459,169.239,93.913,159.845Z" transform="translate(20.539 -1.524)"/><path class="cls-14" d="M56.143,96.515c35.812,14.205,28.106,68.53,29.549,99.145,2.447,51.918,3.771,103.832,3.43,155.81-0.015,2.4-3.739,2.4-3.723,0q0.424-64.827-2.237-129.614c-0.819-19.513-1.8-39.019-2.722-58.528-1.07-22.649-.029-53.2-25.287-63.223-2.2-.873-1.242-4.475.99-3.59h0Z" transform="translate(20.539 -1.524)"/><path class="cls-15" d="M80.657,159c0.065-.179.111-0.365,0.175-0.546a16.818,16.818,0,0,1,1.449,2.738Z" transform="translate(20.539 -1.524)"/><path class="cls-14" d="M54.1,99.678a1.838,1.838,0,0,1,2.734-1.237c11.65,3.457,20.844,13.336,24.832,24.815,3.926,11.3,3.12,23.9-.837,35.2-4.451-7.029-13.493-10.542-19.825-16.372C49.77,131.735,48.044,113.7,54.1,99.678Z" transform="translate(20.539 -1.524)"/><path class="cls-16" d="M61.562,351.516h50.076a5.822,5.822,0,0,1,5.822,5.822v56.438a0,0,0,0,1,0,0H55.741a0,0,0,0,1,0,0V357.338A5.822,5.822,0,0,1,61.562,351.516Z" transform="translate(193.74 763.768) rotate(-180)"/><path class="cls-14" d="M84.98,277.594c0.559-14.386,1.213-31.424-9.472-42.7-8.342-8.8-29.732-14.869-41.723-15.179-2.391-.062-2.4-3.785,0-3.723,9.144,0.237,18.683,3.863,27.3,6.786,6.337,2.151,12.333,4.531,17.06,9.483C89.618,244.286,89.3,262.151,88.7,277.594c-0.093,2.388-3.816,2.4-3.723,0h0Z" transform="translate(20.539 -1.524)"/><path class="cls-14" d="M29.77,214.494a1.163,1.163,0,0,1,.912-0.258l13.5,0.115A47.625,47.625,0,0,1,55.8,215.4c7.611,1.979,13.773,7.6,18.589,13.82l1.4,0.214c-7.023,2.241-13.92,5.181-21.253,5.944s-15.459-1.1-20.054-6.862c-2.926-3.672-4.066-8.43-4.838-13.061A1.16,1.16,0,0,1,29.77,214.494Z" transform="translate(20.539 -1.524)"/><rect class="cls-17" x="329.312" y="369.72" width="14.92" height="25.015" transform="translate(-151.42 354.131) rotate(-45.628)"/><rect class="cls-17" x="244.634" y="371.867" width="14.92" height="25.015" transform="translate(144.411 -58.573) rotate(17.062)"/><polygon class="cls-13" points="187.072 311.983 173.386 409.692 178.203 409.819 203.731 308.916 187.359 308.916 187.072 311.983"/><polygon class="cls-13" points="288.279 311.983 301.965 409.692 297.148 409.819 271.62 308.916 287.992 308.916 288.279 311.983"/><path class="cls-18" d="M180.52,297.572H294.687a4.794,4.794,0,0,1,4.794,4.794v9.617a0,0,0,0,1,0,0H175.726a0,0,0,0,1,0,0v-9.617A4.794,4.794,0,0,1,180.52,297.572Z"/><polygon class="cls-19" points="180.854 274.448 273.529 317.102 353.021 388.673 367.885 373.889 299.481 297.572 230.604 248.597 180.854 274.448"/><path class="cls-20" d="M154.756,255.076v17.45a27.359,27.359,0,0,0,27.359,27.359H268.5c-15.51,18.742-24.4,79.175-24.4,79.175l19.456,5.314,34.351-87.919a24.794,24.794,0,0,0-23.168-33.623H212.908l0.443-7.755h-58.6Z" transform="translate(20.539 -1.524)"/><path class="cls-4" d="M191.768,171.337l16.123,3.041a31.971,31.971,0,0,1,22.76,17.3l13.194,26.808-13.208,29.7-1.343,13.352s-64.007,28.367-79.722,15.51l-0.729-68.258L173,173.459Z" transform="translate(20.539 -1.524)"/><path class="cls-17" d="M169.365,151.571s5.112,22.968,4.034,36.324h18.742s-1.935-22.8,1.939-26.55Z" transform="translate(20.539 -1.524)"/><path class="cls-17" d="M202.284,132.617c-0.237-4.195-1.977-8.139-3.69-11.976l-0.7.339c-4.149-3.982-10.528-5.22-16.076-3.7a22.818,22.818,0,0,0-13.18,10.474,27.409,27.409,0,0,0-2.045,23.611,26.774,26.774,0,0,0,17.523,15.895c3.148,0.868,6.819,1.037,9.381-.986a12.879,12.879,0,0,0,2.538-3.023c1.9-2.809,3.793-5.741,4.431-9.069,0.505-2.635.188-5.351,0.322-8.031C201.015,141.607,202.54,137.155,202.284,132.617Z" transform="translate(20.539 -1.524)"/><path class="cls-21" d="M194.251,115.124c-2.281-1.735-4.4-3.721-6.934-5.062A25.681,25.681,0,0,0,181,107.895c-5.5-1.264-9.209-.907-13.411,3.181a17.62,17.62,0,0,0-5.406,11.8,11.236,11.236,0,0,1-.293,3,10.849,10.849,0,0,1-1.872,3.006,20.1,20.1,0,0,0-2.329,18.524c0.979,2.7,2.555,5.747,5.1,7.207,2.046,1.174,7.354,2.066,8.358,4.533a25.4,25.4,0,0,1-1.752-11.883,6.387,6.387,0,0,1,.858-2.993,2.613,2.613,0,0,1,2.685-1.219,5.724,5.724,0,0,1,1.865,1.223,6.325,6.325,0,0,0,3.754,1.286,2.625,2.625,0,0,0,1.518-.366,2.8,2.8,0,0,0,.987-1.84c0.671-3.435-.483-7.351-1.594-10.581-0.937-2.725-1.116-6.289,2.511-6.059,3.259,0.207,6.594,2.2,10.076,2.395a29.1,29.1,0,0,0,19.862-6.24A41.348,41.348,0,0,1,194.251,115.124Z" transform="translate(20.539 -1.524)"/><polygon class="cls-13" points="206.864 186.371 212.307 168.52 215.524 169.127 218.928 197.788 206.864 186.371"/><path class="cls-17" d="M172.742,171.337L155.6,174.582a25.456,25.456,0,0,0-18.733,15.146l-19.15,45.55a9.789,9.789,0,0,0,9.024,13.583l68.491-3.422,3.16-9.7-7.54,2.563-42.87-3.633a4.519,4.519,0,0,1-3.278-7.154l28.7-39.623S178.548,173.737,172.742,171.337Z" transform="translate(20.539 -1.524)"/><path class="cls-4" d="M172.743,171.337L155.6,174.582a25.456,25.456,0,0,0-18.733,15.146l-13.227,28.112c10.34-1.077,21.065,9.678,28.436,3.878L173.4,187.895S178.548,173.737,172.743,171.337Z" transform="translate(20.539 -1.524)"/><polygon class="cls-13" points="193.13 168.698 206.864 186.371 197.17 199.081 188.376 169.813 193.13 168.698"/><path class="cls-20" d="M238.587,389.718l-4.77,12.084v9.541h58.515V408.7a5.113,5.113,0,0,0-3.929-4.974l-9.428-2.245-19.717-11.766h-3.5l-1.59,3.5H243.993l-0.954-3.5h-4.452Z" transform="translate(20.539 -1.524)"/><path class="cls-4" d="M233.817,406.255v5.088h58.515V408.7a5.1,5.1,0,0,0-.626-2.448H233.817Z" transform="translate(20.539 -1.524)"/><path class="cls-19" d="M335.582,394.465l6.836,11.048,7.648,5.7,34.98-46.907-2.116-1.578a5.112,5.112,0,0,0-6.336.176l-7.436,6.216-21.219,8.772-2.092,2.8,1.854,3.366-6.084,8.158-3.375-1.327Z" transform="translate(20.539 -1.524)"/><path class="cls-4" d="M345.987,408.175l4.079,3.042,34.98-46.907-2.116-1.578a5.1,5.1,0,0,0-2.337-.962Z" transform="translate(20.539 -1.524)"/><polygon class="cls-13" points="131.313 253.044 102.162 418.01 107.22 418.01 148.582 254.891 131.313 253.044"/><polygon class="cls-13" points="405.086 253.044 434.237 418.01 429.178 418.01 387.817 254.891 405.086 253.044"/><rect class="cls-13" x="81.296" y="245.711" width="364.839" height="11.725" rx="1.294" ry="1.294"/><rect class="cls-22" x="167.863" y="241.167" width="41.9" height="5.495"/><path class="cls-23" d="M260.817,248.187H174.57L194.9,195.563a3.28,3.28,0,0,1,3.059-2.1h79.215a3.28,3.28,0,0,1,3.06,4.462Z" transform="translate(20.539 -1.524)"/><circle class="cls-24" cx="248.802" cy="219.302" r="5.376"/><g id="_Group_4" data-name="&lt;Group&gt;"><g id="_Group_5" data-name="&lt;Group&gt;"><g id="_Group_6" data-name="&lt;Group&gt;"><g id="_Group_7" data-name="&lt;Group&gt;"><path id="_Path_5" data-name="&lt;Path&gt;" class="cls-7" d="M307.58,235.975h-4.543a7.492,7.492,0,1,1,0-14.984h2.919v3.175h-2.919a4.317,4.317,0,1,0,0,8.635h4.543v3.175Z" transform="translate(20.539 -1.524)"/></g></g></g><g id="_Group_8" data-name="&lt;Group&gt;"><g id="_Group_9" data-name="&lt;Group&gt;"><path id="_Path_6" data-name="&lt;Path&gt;" class="cls-7" d="M332.209,218.5H304.59v8.4a23.8,23.8,0,0,0,6.286,16.117h0V247.2h15.048v-4.191h0a23.805,23.805,0,0,0,6.286-16.117v-8.4Z" transform="translate(20.539 -1.524)"/></g></g><g id="_Group_10" data-name="&lt;Group&gt;" class="cls-25"><g id="_Group_11" data-name="&lt;Group&gt;"><path id="_Path_7" data-name="&lt;Path&gt;" class="cls-4" d="M326.529,218.5v8.4a23.8,23.8,0,0,1-6.286,16.116h0V247.2h3.246v-4.191h0a23.8,23.8,0,0,0,6.286-16.116v-8.4h-3.246Z" transform="translate(20.539 -1.524)"/></g></g></g></svg>