<svg id="Layer_1" data-name="Layer 1" xmlns="http://www.w3.org/2000/svg" viewBox="0 0 627.629 478.948"><defs><style>.cls-1{fill:#eceef4;}.cls-2{fill:#fff;stroke:#e3e5e8;stroke-miterlimit:10;}.cls-3{fill:#ffdfd6;}.cls-4{fill:#ffd04d;}.cls-5{fill:#dfe2ec;}.cls-6{fill:#00bfd8;}.cls-7{fill:#f3f4f9;}.cls-8{fill:#ffcebd;}.cls-9{fill:#4d5068;}.cls-10{fill:#3d3d72;}.cls-11{fill:#393939;}.cls-12{fill:#007d87;}.cls-13{fill:#e6e7e8;}.cls-14{fill:#0c5a71;}.cls-15{fill:#1a1a47;}.cls-16{fill:#878787;}.cls-17{fill:#8c4200;}</style></defs><title>header-teamwork</title><ellipse class="cls-1" cx="136.155" cy="470.085" rx="113.822" ry="8.863"/><rect class="cls-2" x="95.714" y="0.5" width="40.029" height="40.029"/><rect class="cls-3" x="95.714" y="0.5" width="7.041" height="7.041"/><rect class="cls-2" x="149.344" y="0.5" width="40.029" height="40.029"/><rect class="cls-3" x="149.344" y="0.5" width="7.04" height="7.041"/><rect class="cls-4" x="202.974" y="0.5" width="40.029" height="40.029"/><rect class="cls-2" x="256.603" y="0.5" width="40.029" height="40.029"/><rect class="cls-2" x="95.683" y="50.577" width="40.029" height="40.029"/><rect class="cls-2" x="149.313" y="50.577" width="40.029" height="40.029"/><rect class="cls-2" x="202.942" y="50.577" width="40.029" height="40.029"/><rect class="cls-2" x="256.572" y="50.577" width="40.029" height="40.029"/><rect class="cls-2" x="95.652" y="100.652" width="40.029" height="40.029"/><rect class="cls-2" x="41.797" y="0.5" width="40.029" height="40.029"/><rect class="cls-2" x="41.766" y="50.577" width="40.029" height="40.029"/><rect class="cls-2" x="41.734" y="100.652" width="40.029" height="40.029"/><rect class="cls-2" x="149.281" y="100.652" width="40.029" height="40.029"/><rect class="cls-2" x="202.911" y="100.652" width="40.029" height="40.029"/><rect class="cls-2" x="256.54" y="100.652" width="40.029" height="40.029"/><rect class="cls-3" x="41.797" y="0.5" width="7.04" height="7.041"/><rect class="cls-3" x="256.603" y="0.5" width="7.041" height="7.041"/><rect class="cls-3" x="95.714" y="50.577" width="7.041" height="7.04"/><rect class="cls-3" x="149.344" y="50.577" width="7.04" height="7.04"/><rect class="cls-3" x="41.797" y="50.577" width="7.04" height="7.04"/><rect class="cls-3" x="256.603" y="50.577" width="7.041" height="7.04"/><rect class="cls-3" x="202.974" y="50.577" width="7.04" height="7.04"/><rect class="cls-3" x="95.714" y="100.652" width="7.041" height="7.04"/><rect class="cls-3" x="149.344" y="100.652" width="7.04" height="7.04"/><rect class="cls-3" x="41.797" y="100.652" width="7.04" height="7.04"/><rect class="cls-3" x="256.603" y="100.652" width="7.041" height="7.04"/><rect class="cls-3" x="202.974" y="100.652" width="7.04" height="7.04"/><rect class="cls-2" x="317.477" y="0.5" width="254.87" height="400.122" rx="4.81" ry="4.81"/><rect class="cls-5" x="330.309" y="20.515" width="33.148" height="7.634"/><rect class="cls-1" x="373.614" y="33.668" width="35.286" height="151.093"/><rect class="cls-1" x="420.128" y="33.668" width="35.286" height="275.233"/><rect class="cls-6" x="420.128" y="33.668" width="35.286" height="210.005"/><rect class="cls-1" x="466.641" y="33.668" width="35.286" height="177.535"/><rect class="cls-4" x="466.641" y="33.668" width="35.286" height="47.008"/><rect class="cls-1" x="513.155" y="33.668" width="35.286" height="117.661"/><rect class="cls-6" x="513.155" y="33.668" width="35.286" height="82.085"/><rect class="cls-4" x="373.614" y="33.668" width="35.286" height="83.708"/><rect class="cls-5" x="330.309" y="40.568" width="33.148" height="7.634"/><rect class="cls-5" x="330.309" y="60.622" width="33.148" height="7.634"/><rect class="cls-5" x="330.309" y="80.676" width="33.148" height="7.634"/><rect class="cls-5" x="330.309" y="100.729" width="33.148" height="7.634"/><rect class="cls-5" x="330.309" y="120.783" width="33.148" height="7.634"/><rect class="cls-5" x="330.309" y="140.837" width="33.148" height="7.634"/><rect class="cls-5" x="330.309" y="160.891" width="33.148" height="7.634"/><rect class="cls-5" x="330.309" y="180.944" width="33.148" height="7.634"/><rect class="cls-5" x="330.309" y="200.998" width="33.148" height="7.634"/><rect class="cls-5" x="330.309" y="221.052" width="33.148" height="7.634"/><rect class="cls-5" x="330.309" y="241.106" width="33.148" height="7.634"/><rect class="cls-5" x="330.309" y="261.16" width="33.148" height="7.634"/><rect class="cls-5" x="330.309" y="281.213" width="33.148" height="7.634"/><rect class="cls-5" x="330.309" y="301.267" width="33.148" height="7.634"/><rect class="cls-5" x="330.309" y="321.321" width="33.148" height="7.634"/><rect class="cls-5" x="330.309" y="341.375" width="33.148" height="7.634"/><rect class="cls-5" x="330.309" y="361.428" width="33.148" height="7.634"/><rect class="cls-5" x="330.309" y="381.482" width="33.148" height="7.634"/><rect class="cls-2" x="40.267" y="255.171" width="256.365" height="140.181" rx="2.995" ry="2.995"/><rect class="cls-7" x="144.521" y="275.186" width="136.488" height="7.634"/><rect class="cls-7" x="144.521" y="297.72" width="136.488" height="7.634"/><rect class="cls-7" x="144.521" y="320.254" width="136.488" height="7.634"/><rect class="cls-7" x="65.518" y="342.789" width="215.491" height="7.634"/><rect class="cls-7" x="65.518" y="365.323" width="215.491" height="7.634"/><circle class="cls-6" cx="101.606" cy="302.392" r="31.582"/><path class="cls-8" d="M480.639,454.946l-10.977,4.881-17.546,4.491a4.962,4.962,0,0,0-3.874,4.842h0l51.211-.219-1.256-8.978-7.316-5.017H480.639Z" transform="translate(0.679 0.5)"/><path class="cls-9" d="M475.583,463.781l-5.921-3.955-17.188,2.905c-2.265.509-4.233,4.106-4.233,6.428h0l51.211-.219-1.256-8.978-4.18,3.658-7.3-.061C483.344,464.194,478.6,465.428,475.583,463.781Z" transform="translate(0.679 0.5)"/><polygon class="cls-8" points="496.758 460.462 481.317 456.556 481.317 435.264 496.758 435.264 496.758 460.462"/><path class="cls-10" d="M605.069,396.23s-97.826-35.368-109.22-30.987c0,0-14.588-.015-17.689,23.215l0.564,50.141H497.9l5.056-38.279a4.074,4.074,0,0,1,5.86-2.306l59.122,32.94Z" transform="translate(0.679 0.5)"/><path class="cls-10" d="M552.749,405.2L493.6,441.64a11.886,11.886,0,0,0-5.651,10.119v3.5a13.9,13.9,0,0,0,13.9,13.9l80.366-3.972v-23.41s24.633-9.591,23.41-30.1Z" transform="translate(0.679 0.5)"/><polygon class="cls-8" points="587.218 440.195 627.629 469.659 627.629 469.659 582.899 465.687 582.899 442.278 587.218 440.195"/><path class="cls-9" d="M586.54,439.695l-4.319,2.083V451.81h0a9.011,9.011,0,0,1,8.46.336l19.889,15.16a9.049,9.049,0,0,0,5.486,1.852h10.9Z" transform="translate(0.679 0.5)"/><path class="cls-8" d="M553.056,269.9s3.182,18.357-4.173,29.226l26.023-2.41-10.4-33.095Z" transform="translate(0.679 0.5)"/><path class="cls-11" d="M567.228,268.96A22.088,22.088,0,0,0,565,262.983c-2.838-5.834-5.88-11.913-11.156-15.688-2.319-1.66-5-2.815-7.111-4.736l-1.533.935-2.824.489a8.522,8.522,0,0,0-6.366,5.064,7.328,7.328,0,0,0,1.617,7.838,20.6,20.6,0,0,0,4.387,2.664,19.1,19.1,0,0,1,7.585,7.776,28.487,28.487,0,0,0,1.875,3.479c2.365,3.3,6.725,4.339,10.7,5.143a4.517,4.517,0,0,0,2.272.065,3.208,3.208,0,0,0,1.4-1.009A7.455,7.455,0,0,0,567.228,268.96Z" transform="translate(0.679 0.5)"/><path class="cls-8" d="M566.467,258.294a109.189,109.189,0,0,0-9.322-9.325,7.42,7.42,0,0,0-7.1-2.164,10.683,10.683,0,0,1-2.533,0,8.607,8.607,0,0,0-7.045,2.6h0a5.91,5.91,0,0,0-.786,7.042c1.765,3.26-1.98,7.892-1.456,11.525,0.1,0.711,3.127.745,3.232,1.454a26.222,26.222,0,0,0,1.821,7.335,8.854,8.854,0,0,0,5.385,5c2.751,0.745,5.655-.364,8.152-1.737a37.665,37.665,0,0,0,9.439-7.366c2.294-2.472,4.361-5.719,3.633-9.013C569.428,261.548,567.92,259.869,566.467,258.294Z" transform="translate(0.679 0.5)"/><path class="cls-12" d="M586.147,305.042c-5.426,16.75,24.918,106.846,24.918,106.846-12.959,17.14-44.224-6.9-64.377-2.508,0,0,.212-37.832-7.418-54.762L529,337.885a10.958,10.958,0,0,1,.489-12.191l19.394-26.57,27.775-10.542a5.849,5.849,0,0,1,6.561,1.715h0A15.546,15.546,0,0,1,586.147,305.042Z" transform="translate(0.679 0.5)"/><path class="cls-11" d="M591.23,310.739c0.486-12.447-3.98-24.607-4.306-37.06-0.253-9.668,1.722-20.4-4.013-28.183-4.733-6.426-13.379-8.637-21.359-8.786a29.264,29.264,0,0,0-11.491,1.711,18.878,18.878,0,0,0-6.027,4.047c-0.933.924-1.96,1.773-1.508,3.011,0.406,1.111,2.337,2.1,3.353,2.494,1.44,0.553,3.011.664,4.494,1.09,3.525,1.014,3.762,3.607,4.232,6.809a94.856,94.856,0,0,1,.978,11.328,28.4,28.4,0,0,0,.32,4.446,9.4,9.4,0,0,0,.648,2.132c1.128,2.512,3.469,4.218,5.594,5.968,1.717,1.413,3.887,3.311,4.394,5.6,0.59,2.657-.44,5.532.28,8.306,1.162,4.473,5.166,7.505,8.088,11.085,4.349,5.33,6.431,12.221,7.05,19.072s6.256,15.343,7.371,20.584C594.155,333.632,590.769,322.521,591.23,310.739Z" transform="translate(0.679 0.5)"/><path class="cls-8" d="M448.731,286.446l11.455,14.688a4.412,4.412,0,0,1,.688,1.265l4.463,12.846,42.326,25.4,52.628-22.787a10.059,10.059,0,0,1,12.69,4.17h0a10.059,10.059,0,0,1-5.006,14.42l-56.351,22.2a6.888,6.888,0,0,1-6.742-.962l-45.5-35.226h-0.346a5.532,5.532,0,0,1-5.346-4.11l-1.52-5.714a10.3,10.3,0,0,1-1.285-6.509c0.5-2.5,2.07-7.479,2.08-7.886l-7.692-10.9,0.648-1.179A1.954,1.954,0,0,1,448.731,286.446Z" transform="translate(0.679 0.5)"/><path class="cls-12" d="M575.911,319.993a10.8,10.8,0,0,0-13.621-4.476l-28.9,9.96c-2.713,5.935,10.827,14.807,9.718,24.229l27.434-14.235A10.8,10.8,0,0,0,575.911,319.993Z" transform="translate(0.679 0.5)"/><rect class="cls-2" x="41.734" y="151.33" width="254.835" height="89.653" rx="3.182" ry="3.182"/><rect class="cls-7" x="51.695" y="161.059" width="71.861" height="70.194"/><rect class="cls-7" x="133.373" y="170.646" width="152.313" height="11.785"/><rect class="cls-7" x="133.659" y="190.506" width="152.313" height="11.785"/><rect class="cls-7" x="133.946" y="210.366" width="81.999" height="11.785"/><path class="cls-13" d="M295.632,470.023a25.507,25.507,0,1,1,25.507-25.507A25.536,25.536,0,0,1,295.632,470.023Zm0-46.537a21.03,21.03,0,1,0,21.03,21.03A21.054,21.054,0,0,0,295.632,423.487Z" transform="translate(0.679 0.5)"/><path class="cls-13" d="M351.176,470.023a25.507,25.507,0,1,1,25.506-25.507A25.536,25.536,0,0,1,351.176,470.023Zm0-46.537a21.03,21.03,0,1,0,21.03,21.03A21.054,21.054,0,0,0,351.176,423.487Z" transform="translate(0.679 0.5)"/><path class="cls-13" d="M406.718,470.023a25.507,25.507,0,1,1,25.507-25.507A25.537,25.537,0,0,1,406.718,470.023Zm0-46.537a21.03,21.03,0,1,0,21.03,21.03A21.054,21.054,0,0,0,406.718,423.487Z" transform="translate(0.679 0.5)"/><path class="cls-11" d="M295.632,470.023a25.511,25.511,0,0,1-9.926-49.006,25.68,25.68,0,0,1,19.856,0,25.41,25.41,0,0,1,8.105,5.465l-3.165,3.165a21.058,21.058,0,1,0,6.16,14.87h4.477A25.489,25.489,0,0,1,295.632,470.023Z" transform="translate(0.679 0.5)"/><path class="cls-10" d="M351.176,470.023a25.507,25.507,0,1,1,0-51.013v4.477a21.036,21.036,0,0,0-8.186,40.407,21.174,21.174,0,0,0,16.37,0,21.013,21.013,0,0,0,12.846-19.377h4.477A25.494,25.494,0,0,1,351.176,470.023Z" transform="translate(0.679 0.5)"/><path class="cls-14" d="M416.648,468.017l-1.744-4.123a21.03,21.03,0,1,0-27.563-27.563l-4.122-1.744a25.577,25.577,0,0,1,13.574-13.569,25.68,25.68,0,0,1,19.856,0A25.519,25.519,0,0,1,416.648,468.017Z" transform="translate(0.679 0.5)"/><rect class="cls-2" x="0.5" y="196.671" width="28.724" height="94.299" rx="4.378" ry="4.378"/><path class="cls-8" d="M141.885,66.76A9.1,9.1,0,0,1,146.7,60.65l-3.286-2.7a16.877,16.877,0,0,1,4.263.605,26.874,26.874,0,0,1,3.935,1.777c1.942,0.959,2.978,1.113,3.95,3.164l3.073,6.482a20.855,20.855,0,0,1,1.207,2.916c0.444,1.479,2.166,3.034,2.275,4.575,0.09,1.282-1.43,2.563-1.34,3.845a19.588,19.588,0,0,1,.04,3.437,19.589,19.589,0,0,1-1.088,4.2c-0.832,2.447-1.655,5.962-3.83,7.546-2.307,1.68-4.812,3.148-7.756,3.161a3.214,3.214,0,0,1-1.844-.431,3.616,3.616,0,0,1-1.107-1.527c-3.32-7.072-3.619-15.133-3.859-22.942A26.944,26.944,0,0,1,141.885,66.76Z" transform="translate(0.679 0.5)"/><path class="cls-8" d="M205.482,116.876l12.7-17.419a11.277,11.277,0,0,0,2.011-4.788l8.058-48.3H217.073L204.811,86.178a15.575,15.575,0,0,1-4.757,7.247l-10.012,8.569Z" transform="translate(0.679 0.5)"/><path class="cls-8" d="M71.24,155.95L58.391,173.993a13.134,13.134,0,0,0-.629,14.266l36.977,63.008,7.149-8.669-23.9-51.631a13.051,13.051,0,0,1,1.849-13.876L90.916,163.9Z" transform="translate(0.679 0.5)"/><path class="cls-8" d="M100.547,239.7l5.883,11.569V264.4l-13.874,8.252h0a6.953,6.953,0,0,1,1.109-9.18l1.035-.914,0.04-11.293Z" transform="translate(0.679 0.5)"/><rect class="cls-8" x="93.219" y="449.186" width="14.883" height="12.456"/><path class="cls-15" d="M95.567,457.263h12.108l2.27,6.811v3.279a3.279,3.279,0,0,1-3.279,3.279H94.054l-13.37-5.045V463.28a11.779,11.779,0,0,1,4.875-9.543l6.981-5.05v8.072Z" transform="translate(0.679 0.5)"/><path class="cls-16" d="M106.666,466.092H94.054l-13.114-4.949a11.687,11.687,0,0,0-.255,2.137v2.307l13.37,5.045h12.613a3.279,3.279,0,0,0,3.279-3.279v-3.279l-0.158-.476A3.233,3.233,0,0,1,106.666,466.092Z" transform="translate(0.679 0.5)"/><rect class="cls-8" x="169.996" y="448.686" width="14.883" height="12.456" transform="translate(355.554 910.329) rotate(180)"/><path class="cls-12" d="M178.431,251.036s3.177,21.656,5.652,42.577a116.347,116.347,0,0,1,.8,13.668V451.966H170s-11.5-50.4-13.821-84a179.124,179.124,0,0,0-4.094-26.452l-15.634-70.379V253.915Z" transform="translate(0.679 0.5)"/><path class="cls-12" d="M98.871,256.565s-3.339,18.683-5.834,39.79a68.411,68.411,0,0,0-.481,8.026V451.966l14.867,0.264s12.732-48.4,14.3-85.334a105.211,105.211,0,0,1,2.568-17.411l16.694-56.836V253.915Z" transform="translate(0.679 0.5)"/><path class="cls-15" d="M181.852,457.263H169.744l-2.27,6.811v3.279a3.279,3.279,0,0,0,3.279,3.279h12.613l13.369-5.045V463.28a11.778,11.778,0,0,0-4.875-9.543l-6.981-5.05v8.072Z" transform="translate(0.679 0.5)"/><path class="cls-16" d="M170.753,466.092h12.613l13.114-4.949a11.687,11.687,0,0,1,.255,2.137v2.307l-13.369,5.045H170.753a3.279,3.279,0,0,1-3.279-3.279v-3.279l0.158-.476A3.234,3.234,0,0,0,170.753,466.092Z" transform="translate(0.679 0.5)"/><path class="cls-9" d="M124.844,112.184l-16.665,5.179a35.4,35.4,0,0,0-15.823,10.143l-25.8,28.715,24.759,14.485,8.81-12.865s1.766,77.189-2.4,103.927c0,0,50.828,20.685,84.378,0,0,0-12.612-68.108-2.27-101.909l26.486-42.126-16.278-16.648L164.7,114.2l-5.8-2.018H124.844Z" transform="translate(0.679 0.5)"/><path class="cls-8" d="M229.254,43.294l1.867-8.771a3.415,3.415,0,0,0-1.172-3.35l-4.527-3.719h-3.444s1.784-9.471,1.086-15.074h-1.086l-6.009,20.112V44.061l1.98,4.2h9.517Z" transform="translate(0.679 0.5)"/><path class="cls-8" d="M158.9,112.184s-7.063-5.3-7.063-13.37H130.393s-0.42,11.1-5.549,13.37H158.9Z" transform="translate(0.679 0.5)"/><path class="cls-17" d="M120.91,79.229c0.351-2.34-.269-4.7-0.469-7.061a17.586,17.586,0,0,1,1.85-9.707,21.449,21.449,0,0,1,4.733-6.581c3.972-3.46,9.606-4.225,14.873-4.162a12.742,12.742,0,0,1,4.728.721c1.167,0.481,2.2,1.272,3.405,1.649,0.8,0.251,1.646.309,2.461,0.5a12.456,12.456,0,0,1,3.144,1.341,8.075,8.075,0,0,1,2.772,2.222,3.172,3.172,0,0,1,.243,3.547c-0.728,1.082-1.633.872-2.709,1.215-2.119.675-5.449,2.5-5.884,4.9-0.332,1.831.929,3.531,2.115,4.965s2.447,3.132,2.118,4.964a1.241,1.241,0,0,1-.386.772c-0.453.36-1.119,0.107-1.691,0.2a1.855,1.855,0,0,0-1.384,1.521c-0.506,2.515.088,5.031-.206,7.514-0.316,2.665-1.8,5.205-3.023,7.552a14.793,14.793,0,0,1-2.812,4.152,12.214,12.214,0,0,1-3.872,2.231,34.917,34.917,0,0,1-12.225,2.455c-7.5.137-5.875-6.716-8.213-11.572a23.276,23.276,0,0,1-1.659-3.3C117.828,85.942,120.395,82.663,120.91,79.229Z" transform="translate(0.679 0.5)"/><g id="_Group_" data-name="&lt;Group&gt;"><path id="_Path_" data-name="&lt;Path&gt;" class="cls-6" d="M243.079,406.308v31.1l0.016,0.016,21.945,22.005a31,31,0,0,0,9.136-21.93c0-.031,0-0.061,0-0.092A31.1,31.1,0,0,0,243.079,406.308Z" transform="translate(0.679 0.5)"/><path id="_Path_2" data-name="&lt;Path&gt;" class="cls-4" d="M219.607,415.389a31,31,0,0,0-9.138,21.962l31.1,0.075V406.308A31,31,0,0,0,219.607,415.389Z" transform="translate(0.679 0.5)"/><path id="_Path_3" data-name="&lt;Path&gt;" class="cls-12" d="M241.584,438.937h-0.016l-31.1-.075c0,0.02,0,.039,0,0.059a31.1,31.1,0,0,0,53.064,22.021Z" transform="translate(0.679 0.5)"/></g><path class="cls-7" d="M4.556,207.819v70.69c0,2,1.314,3.618,2.934,3.618H20.876c1.621,0,2.934-1.62,2.934-3.618v-70.69c0-2-1.314-3.618-2.934-3.618H7.491C5.87,204.2,4.556,205.821,4.556,207.819Z" transform="translate(0.679 0.5)"/></svg>