<svg id="Layer_3" data-name="Layer 3" xmlns="http://www.w3.org/2000/svg" viewBox="0 0 156 42"><defs><style>.cls-1{fill:#00bfd8;}.cls-2{fill:#fff;}.cls-3{fill:#393939;}</style></defs><title>logo</title><ellipse class="cls-1" cx="20.918" cy="21" rx="20.918" ry="21"/><path class="cls-2" d="M19.249,30.683a8.63,8.63,0,0,1-3.365-.618,7.279,7.279,0,0,1-4.135-4.379,9.865,9.865,0,0,1-.546-3.34,11.579,11.579,0,0,1,.959-4.663,12.3,12.3,0,0,1,2.628-3.869,12.666,12.666,0,0,1,3.947-2.642,12.252,12.252,0,0,1,4.91-.984A8.334,8.334,0,0,1,28.742,11.6a4.8,4.8,0,0,1,1.9,4.095q0,6.38-11.356,6.38H17.893q-0.714,0-1.507-.076V22.49a5.4,5.4,0,0,0,.9,3.247,3.286,3.286,0,0,0,2.858,1.246,5.911,5.911,0,0,0,2.839-.717,5.529,5.529,0,0,0,2.124-2L29.1,25.511a10.668,10.668,0,0,1-1.842,2.1,12.029,12.029,0,0,1-2.388,1.641,12.959,12.959,0,0,1-2.727,1.06A11.314,11.314,0,0,1,19.249,30.683ZM22.9,13.849a5.173,5.173,0,0,0-2.03.4,5.707,5.707,0,0,0-1.672,1.075,7.686,7.686,0,0,0-1.3,1.59,9.019,9.019,0,0,0-.9,1.925c0.4,0.026.792,0.039,1.166,0.039h1.166a21.148,21.148,0,0,0,3.064-.189,7.06,7.06,0,0,0,2.031-.567,2.729,2.729,0,0,0,1.105-.883,2.1,2.1,0,0,0,.339-1.188,1.839,1.839,0,0,0-.827-1.641,3.822,3.822,0,0,0-2.15-.556H22.9Z" transform="translate(0)"/><path class="cls-3" d="M72.924,31.879V36h-20.2V6.438h19.83v4.122H57.371v8.411H70.518v3.872H57.371v9.036H72.924Z" transform="translate(0)"/><path class="cls-3" d="M81.966,36l-8.3-21.777h4.687l6.221,17.9,6.266-17.9h4.311L86.86,36H81.966Z" transform="translate(0)"/><path class="cls-3" d="M107.39,36.419a11.244,11.244,0,0,1-4.623-.916,10.651,10.651,0,0,1-5.745-6.053,12.179,12.179,0,0,1,0-8.62,10.649,10.649,0,0,1,2.261-3.6,11.031,11.031,0,0,1,3.525-2.457,11.916,11.916,0,0,1,9.166,0,11.046,11.046,0,0,1,3.526,2.457,10.693,10.693,0,0,1,2.26,3.6,12.179,12.179,0,0,1,0,8.62,10.69,10.69,0,0,1-2.262,3.6A10.953,10.953,0,0,1,107.39,36.419ZM100.92,25.181a8.263,8.263,0,0,0,.5,2.915,7.24,7.24,0,0,0,1.369,2.311,6.4,6.4,0,0,0,2.053,1.539,6.063,6.063,0,0,0,5.1,0A6.247,6.247,0,0,0,112,30.384a7.492,7.492,0,0,0,1.369-2.331,8.725,8.725,0,0,0,0-5.809A7.462,7.462,0,0,0,112,19.891a6.259,6.259,0,0,0-2.053-1.561,5.861,5.861,0,0,0-2.55-.563,5.6,5.6,0,0,0-2.512.583,6.535,6.535,0,0,0-2.054,1.584,7.79,7.79,0,0,0-1.39,2.353A8.03,8.03,0,0,0,100.92,25.181Z" transform="translate(0)"/><path class="cls-3" d="M122.653,5.609h4.562V29.72a2.716,2.716,0,0,0,.622,1.895,2.228,2.228,0,0,0,1.742.688,4.057,4.057,0,0,0,1.06-.166q0.6-.167,1.142-0.375l0.663,3.581a10.568,10.568,0,0,1-2.365.728,12.775,12.775,0,0,1-2.448.271,4.994,4.994,0,0,1-3.67-1.29,4.918,4.918,0,0,1-1.306-3.664V5.609h0Z" transform="translate(0)"/><path class="cls-3" d="M144.841,36.419a11.244,11.244,0,0,1-4.623-.916,10.651,10.651,0,0,1-5.745-6.053,12.179,12.179,0,0,1,0-8.62,10.649,10.649,0,0,1,2.261-3.6,11.031,11.031,0,0,1,3.525-2.457,11.916,11.916,0,0,1,9.166,0,11.046,11.046,0,0,1,3.526,2.457,10.693,10.693,0,0,1,2.26,3.6,12.179,12.179,0,0,1,0,8.62,10.69,10.69,0,0,1-2.264,3.6A10.959,10.959,0,0,1,144.841,36.419Zm-6.47-11.238a8.263,8.263,0,0,0,.5,2.915,7.24,7.24,0,0,0,1.369,2.311,6.4,6.4,0,0,0,2.053,1.539,6.063,6.063,0,0,0,5.1,0,6.247,6.247,0,0,0,2.053-1.562,7.492,7.492,0,0,0,1.369-2.331,8.725,8.725,0,0,0,0-5.809,7.462,7.462,0,0,0-1.369-2.353,6.259,6.259,0,0,0-2.053-1.561,5.861,5.861,0,0,0-2.55-.563,5.6,5.6,0,0,0-2.512.583,6.535,6.535,0,0,0-2.055,1.584,7.79,7.79,0,0,0-1.39,2.353A8.03,8.03,0,0,0,138.372,25.181Z" transform="translate(0)"/></svg>