<svg id="OBJECTS" xmlns="http://www.w3.org/2000/svg" xmlns:xlink="http://www.w3.org/1999/xlink" viewBox="0 0 216.127 179.826"><defs><style>.cls-1{fill:#ffcebd;}.cls-2{fill:#3c3c71;}.cls-3,.cls-8,.cls-9{fill:#191c3c;}.cls-27,.cls-3{opacity:0.3;}.cls-4{fill:#dfe1e8;}.cls-5{fill:#393939;}.cls-6{fill:#007c86;}.cls-7{fill:#4d5068;}.cls-8{opacity:0.22;}.cls-9{opacity:0.1;}.cls-10{fill:#fff;}.cls-11{fill:url(#linear-gradient);}.cls-12{fill:url(#linear-gradient-2);}.cls-13{fill:#56aaef;}.cls-14{fill:#007bf8;}.cls-15{fill:url(#linear-gradient-3);}.cls-16{fill:url(#linear-gradient-4);}.cls-17{fill:#717386;}.cls-18{fill:#00bed7;}.cls-19{fill:url(#linear-gradient-5);}.cls-20{fill:url(#linear-gradient-6);}.cls-21{fill:#ff794e;}.cls-22{fill:#82423b;}.cls-23,.cls-27{fill:#231f20;}.cls-23{opacity:0.2;}.cls-24{fill:#545671;}.cls-25{fill:#3f4155;}.cls-26{fill:#f5f7f9;}.cls-28{fill:#8b4200;}.cls-29{fill:#525d7a;opacity:0.15;}</style><linearGradient id="linear-gradient" x1="11.57" y1="167.353" x2="69.887" y2="167.353" gradientUnits="userSpaceOnUse"><stop offset="0" stop-color="#e2e2e6"/><stop offset="0.176" stop-color="#efeff2"/><stop offset="0.331" stop-color="#fff"/></linearGradient><linearGradient id="linear-gradient-2" x1="110.347" y1="156.677" x2="110.551" y2="178.663" gradientUnits="userSpaceOnUse"><stop offset="0.262" stop-color="#e6e6ea"/><stop offset="1" stop-color="#fff"/></linearGradient><linearGradient id="linear-gradient-3" x1="12.77" y1="137.99" x2="75.643" y2="137.99" gradientUnits="userSpaceOnUse"><stop offset="0" stop-color="#f2f2f4"/><stop offset="0.331" stop-color="#fff"/></linearGradient><linearGradient id="linear-gradient-4" x1="96.322" y1="123.711" x2="96.595" y2="153.117" gradientUnits="userSpaceOnUse"><stop offset="0.262" stop-color="#f1f1f3"/><stop offset="1" stop-color="#fff"/></linearGradient><linearGradient id="linear-gradient-5" x1="12.57" y1="108.337" x2="70.887" y2="108.337" gradientUnits="userSpaceOnUse"><stop offset="0" stop-color="#f4f5f6"/><stop offset="0.331" stop-color="#fff"/></linearGradient><linearGradient id="linear-gradient-6" x1="93.734" y1="97.81" x2="93.934" y2="119.489" gradientUnits="userSpaceOnUse"><stop offset="0.257" stop-color="#dadadf"/><stop offset="1" stop-color="#fff"/></linearGradient></defs><title>testimonials</title><rect class="cls-1" x="183.618" y="168.491" width="7.306" height="7.306"/><rect class="cls-1" x="192.489" y="168.491" width="7.306" height="7.306"/><polygon class="cls-2" points="181.313 93.653 181.313 134.554 183.279 173.318 191.228 173.318 191.228 96.257 181.313 93.653"/><polygon class="cls-3" points="181.313 93.653 181.313 94.233 186.879 103.042 188.433 142.73 190.908 173.318 191.228 173.318 191.228 96.257 181.313 93.653"/><path class="cls-2" d="M206.455,91.566v9.2c0,3.954-.886,5.248-2.592,8.815l-0.452.944-1.3,32.209-0.957,30.587h-8.409l-2.475-30.587L187.669,102l-6.088-8.345V89.2Z" transform="translate(-0.267)"/><polygon class="cls-4" points="160.765 50.897 164.198 45.633 183.279 67.278 175.487 66.885 160.765 50.897"/><path class="cls-5" d="M208.011,33.233a13.884,13.884,0,0,1-.39-9.709l-0.032-.242-1.322,4.393a10.226,10.226,0,0,1-.817,2.125c-0.362.638-.856,1.19-1.25,1.808a6.752,6.752,0,0,0-.952,4.7,3.908,3.908,0,0,0,.578,1.569,5.146,5.146,0,0,0,2.267,1.6,36.132,36.132,0,0,0,6.5,2.185C211.523,38.644,209.264,36.182,208.011,33.233Z" transform="translate(-0.267)"/><path class="cls-1" d="M166.363,58.7h3.75a0,0,0,0,1,0,0v1.7a0,0,0,0,1,0,0h-2.377a1.373,1.373,0,0,1-1.373-1.373V58.7A0,0,0,0,1,166.363,58.7Z" transform="translate(44.214 -69.038) rotate(26.605)"/><path class="cls-6" d="M183.546,67.278l8.732-29.207-5.565,1.89a3.111,3.111,0,0,0-1.485,1.746L178.144,61.15Z" transform="translate(-0.267)"/><path class="cls-1" d="M171.745,58.929l-2.1.929-1.312,1.593a1.091,1.091,0,0,0-.066,1.3l0.464,0.7,0.848,1.631,0.978,1.044,1.109,0.821,2.464,0.744,3.016-3.021-2.19-2.067-2.1-3.329A0.889,0.889,0,0,0,171.745,58.929Z" transform="translate(-0.267)"/><path class="cls-6" d="M192.278,38.854L183.09,54.1a12.2,12.2,0,0,0-1.833,8.54l1.5,9.607-2.914,21.4h28.931l-2.317-22.967,1.419-33L194.7,39.289Z" transform="translate(-0.267)"/><path class="cls-7" d="M173.348,179.826h21.3v-3.5l-1.921-2.448h-9.951l-7.129,1.453a2.87,2.87,0,0,0-2.3,2.812v1.679Z" transform="translate(-0.267)"/><path class="cls-3" d="M200.265,178.265V176.33l-2.212-2.448H186.6l-8.207,1.453a3,3,0,0,0-2.643,2.812v0.118h-0.691v1.561h26.057v-1.561h-0.849Z" transform="translate(-0.267)"/><path class="cls-7" d="M181.055,179.826h21.3v-3.5l-1.921-2.448h-9.951l-7.129,1.453a2.87,2.87,0,0,0-2.3,2.812v1.679Z" transform="translate(-0.267)"/><path class="cls-8" d="M192.278,65.668a0.333,0.333,0,0,1,.049.031C192.2,65.659,192.167,65.643,192.278,65.668Zm10.786,7.363a0.653,0.653,0,0,0,0-1.248c-0.857-.675.373-1.349-0.485-2.024a0.654,0.654,0,0,0,.155-1.183A4.007,4.007,0,0,1,202,68.1c2.94-.472.161-1.223,0.695-6.039,0.044-.394-0.63-0.952-0.563-1.211,0.028-.11.4,0.527,0.706-0.392,0.924-2.794,2.77-5.462,3.641-8.445a0.648,0.648,0,0,0-1.248-.344c-0.83,2.846-1.633,7.334-4.638,8.71-0.432.2-1.424,1.531-1.01,1.734-0.19-.093,1.92,3.154,1.412,3.836-0.791,1.061-1.938.985-3.077,1.112a43.86,43.86,0,0,1-5.592-1.358c0.444,0.3,4.058,3.472,6.314,3.124-0.342.129-1.6,0.7-.314,0.913,1.449,0.235,1.636,1.99,2.71,2.579a0.626,0.626,0,0,0-.124.982c0.967,0.831.924,2.183,1.731,2.96C203.528,77.108,201.817,73.385,203.065,73.031Z" transform="translate(-0.267)"/><path class="cls-8" d="M184.965,71.145c0.448-1.525-.432-1.75-0.68-3.326a3.05,3.05,0,0,0-.095-0.357c1.193-.351-0.449-0.73,1.724-1.073,0.8-.127,2.7-1.192,1.844-1.159a12.357,12.357,0,0,1-5.564-1.03c-0.016-.007-0.031,0-0.047-0.01a4.342,4.342,0,0,1-.427-0.908,0.6,0.6,0,0,0-.43-0.419l0.529,3.4,0.062,0.018a0.968,0.968,0,0,0-.031.179l0.092,0.593a1.243,1.243,0,0,0,.268.374,1.044,1.044,0,0,0,.532.262,7.472,7.472,0,0,1,0,4.481l0.014,0.088S184.769,71.814,184.965,71.145Z" transform="translate(-0.267)"/><path class="cls-9" d="M202.266,64.595l-1.116,4.9-16.572-.632-2.561-1.336,0.737,4.728L182.6,73.366l0.152-.07,18.981,4.06a6.464,6.464,0,0,0,5.272-1.187l-0.553-5.482,0.2-4.651Z" transform="translate(-0.267)"/><path class="cls-1" d="M202.266,63.551l-1.116,4.9-16.572-.632-5.607-2.926L175.709,62.6V63.2a3.046,3.046,0,0,0,1.14,2.376l0.3,0.237-1.435,1.126-0.794.581a1.918,1.918,0,0,0-.593,2.387l0.546,1.125a3.552,3.552,0,0,0,3.2,2h2.995l1.7-.783,18.981,4.06a6.478,6.478,0,0,0,7.4-4.011l2.216-5.766Z" transform="translate(-0.267)"/><polygon class="cls-3" points="201.667 65.007 210.551 67.925 211.086 66.535 201.999 63.551 201.667 65.007"/><path class="cls-6" d="M206.806,36.7l6.73,6.22a8.9,8.9,0,0,1,2.63,8.532l-3.575,15.494L201.15,63.184l2.757-11.372L203.157,40.54Z" transform="translate(-0.267)"/><path class="cls-5" d="M195.931,29.523c0.019-1.378-.151-2.727-0.2-4.079-0.05-1.413.271-2.856,0.218-4.289a24.067,24.067,0,0,0-1.7-8.048,1.16,1.16,0,0,0-.368-0.558,1.185,1.185,0,0,0-.665-0.14,4.734,4.734,0,0,0-3,.649,4.719,4.719,0,0,0-1.358,2.394c-0.589,1.809-1.773,4.158-1.812,6.064-0.036,1.79.9,3.691,1.272,5.424,0.586,2.746.249,5.605,0.585,8.393a14.521,14.521,0,0,1,.218,4.216,6.832,6.832,0,0,1-2.162,3.184,0.805,0.805,0,0,1-.2.163,0.992,0.992,0,0,1-.359.075,2.409,2.409,0,0,0-1.828,1.233,1.306,1.306,0,0,0,1.481.237,2.634,2.634,0,0,1,1.559-.259c0,0.387-.546.655-0.451,1.03a0.628,0.628,0,0,0,.6.357c1.577,0.143,1.756-.544,2.322-1.705,0.827-1.694.494,1.269,0.413,1.74a1.711,1.711,0,0,0,1.03-.767c0.248-.363.415-0.774,0.632-1.156,0.518-.909,1.314-1.636,1.821-2.55a14.019,14.019,0,0,0,1.837-6.74Q195.9,31.957,195.931,29.523Z" transform="translate(-0.267)"/><path class="cls-1" d="M194.434,28.851h8.155a0,0,0,0,1,0,0V39.908a3.907,3.907,0,0,1-3.907,3.907h-0.341a3.907,3.907,0,0,1-3.907-3.907V28.851A0,0,0,0,1,194.434,28.851Z"/><polygon class="cls-3" points="202.589 34.853 194.434 37.462 194.434 28.851 202.589 28.851 202.589 34.853"/><path class="cls-1" d="M189.159,21.72v4.809a3.563,3.563,0,0,0,.456,1.743l3.7,6.592a1.851,1.851,0,0,0,1.615.946h1.931a1.851,1.851,0,0,0,1.257-.492l4.226-3.911a3.332,3.332,0,0,0,1.069-2.445V18.414s-3.934-4.169-9.567-2.749A6.236,6.236,0,0,0,189.159,21.72Z" transform="translate(-0.267)"/><path class="cls-10" d="M192.278,30.549h5.653S195.4,34.315,192.278,30.549Z" transform="translate(-0.267)"/><path class="cls-5" d="M192.335,11.778a10.128,10.128,0,0,1,2.567-.49c0.975-.184,1.879-0.647,2.851-0.849a7.048,7.048,0,0,1,6.337,2.309,14.4,14.4,0,0,1,3.134,6.231,31.073,31.073,0,0,1,.722,12.673c-0.282,1.881-1.054,3.731-1.207,5.613a6.131,6.131,0,0,1-1.8,3.982l-2.11,2.505a9.271,9.271,0,0,1-1.787,1.766,14.841,14.841,0,0,0-1.722.9,1.765,1.765,0,0,1-.236-1.689,7.951,7.951,0,0,0,.453-1.719,2.267,2.267,0,0,1-1.781,1.156c-0.244.017-.887,0.083-0.954-0.26-0.084-.426.4-0.337,0.569-0.527a0.3,0.3,0,0,0,.049-0.22l-0.028-.74a3.388,3.388,0,0,1-2.1.2l3.733-2.887c1.731-1.338,2.647-4.081,3.14-6.148a35.6,35.6,0,0,0,.907-6.135,12.17,12.17,0,0,0-.164-2.811c-0.172-.992-0.063-1.989-0.275-2.966a2.26,2.26,0,0,0-.351-0.867,2.927,2.927,0,0,0-1.451-.874A26.81,26.81,0,0,0,195.39,18.4a23.355,23.355,0,0,1-2.651-.369,3.64,3.64,0,0,1-2.206-1.407C189.5,15.036,190.775,12.527,192.335,11.778Z" transform="translate(-0.267)"/><path class="cls-11" d="M22.843,156.08a11.273,11.273,0,0,0,0,22.546H69.887V156.08H22.843Z" transform="translate(-0.267)"/><path class="cls-12" d="M67.549,178.629a30.483,30.483,0,0,1,0-22.55H155.4a30.483,30.483,0,0,0,0,22.55H67.549Z" transform="translate(-0.267)"/><rect class="cls-13" x="55.562" y="154.881" width="103.051" height="2.4"/><rect class="cls-13" x="55.562" y="177.426" width="103.051" height="2.4"/><path class="cls-14" d="M75.306,179.826H22.843a12.473,12.473,0,1,1,0-24.945H75.306v2.4H22.843a10.073,10.073,0,1,0,0,20.146H75.306v2.4Z" transform="translate(-0.267)"/><path class="cls-15" d="M28.048,122.712a15.277,15.277,0,0,0,0,30.555h47.6V122.712h-47.6Z" transform="translate(-0.267)"/><path class="cls-16" d="M60.722,153.271a41.311,41.311,0,0,1,0-30.561h74.255a41.311,41.311,0,0,0,0,30.561H60.722Z" transform="translate(-0.267)"/><path class="cls-7" d="M75.643,154.894h-47.6a16.9,16.9,0,1,1,0-33.807h47.6v3.252h-47.6a13.651,13.651,0,1,0,0,27.3h47.6v3.252Z" transform="translate(-0.267)"/><rect class="cls-17" x="72.485" y="121.087" width="66.938" height="3.252"/><rect class="cls-17" x="72.485" y="151.641" width="66.938" height="3.252"/><polygon class="cls-18" points="52.511 149.11 46.986 146.659 41.461 149.11 41.461 138.492 52.511 138.492 52.511 149.11"/><path class="cls-19" d="M23.843,97.064a11.273,11.273,0,0,0,0,22.546H70.887V97.064H23.843Z" transform="translate(-0.267)"/><path class="cls-20" d="M68.549,119.612a30.483,30.483,0,0,1,0-22.55h52.623a30.483,30.483,0,0,0,0,22.55H68.549Z" transform="translate(-0.267)"/><rect class="cls-21" x="56.562" y="95.864" width="67.82" height="2.4"/><rect class="cls-22" x="56.562" y="118.41" width="67.82" height="2.4"/><path class="cls-22" d="M76.306,120.81H23.843a12.473,12.473,0,1,1,0-24.945H76.306v2.4H23.843a10.073,10.073,0,1,0,0,20.146H76.306v2.4Z" transform="translate(-0.267)"/><path class="cls-1" d="M97.43,74.587l2.925-.743,7.072,1.207,3.908,3.649-0.941,3.18h0a2.134,2.134,0,0,1-1.441-2.651l0.073-.247-1.258-1.1,0.353,1.526-0.9,2.87h0a2.128,2.128,0,0,1-1.42-2.7l0.223-.686-0.474-.757-0.863-.255-6.637,1.683-1.282-.379L96.3,78.408Z" transform="translate(-0.267)"/><rect class="cls-1" x="130.328" y="127.242" width="8.376" height="7.732" transform="translate(307.204 204.392) rotate(158.698)"/><path class="cls-7" d="M141.436,125.5L152.1,128.03l4.748-.36a2.363,2.363,0,0,1,2.381,1.5l0.508,1.3-26.113,10.182-1.942-1.433-3-7.7,1.279-.268,2.915,1.86,3.6-1.4Z" transform="translate(-0.267)"/><path class="cls-10" d="M158.481,128.194a2.331,2.331,0,0,1,.751.974l0.508,1.3-26.113,10.182-1.942-1.433-0.936-2.4,1.942,1.433Z" transform="translate(-0.267)"/><polygon class="cls-10" points="143.283 128.565 143.049 127.965 146.266 126.711 147.369 126.972 143.283 128.565"/><polygon class="cls-10" points="141.027 127.284 143.921 126.155 145.025 126.417 141.262 127.884 141.027 127.284"/><polygon class="cls-10" points="145.338 129.169 145.104 128.569 148.507 127.242 149.611 127.503 145.338 129.169"/><polygon class="cls-7" points="119.031 91.523 138.646 126.78 128.015 130.685 110.011 105.699 119.031 91.523"/><rect class="cls-1" x="90.064" y="124.867" width="8.376" height="7.732" transform="translate(139.119 281.763) rotate(-160.223)"/><path class="cls-7" d="M103.151,129.055l6.381,8.913,3.816,2.848a2.364,2.364,0,0,1,.81,2.694l-0.473,1.315-26.375-9.484-0.522-2.356,2.8-7.781,1.14,0.638,0.975,3.318,3.638,1.308Z" transform="translate(-0.267)"/><path class="cls-10" d="M114.232,142.283a2.332,2.332,0,0,1-.074,1.227l-0.473,1.315-26.375-9.484-0.522-2.356,0.872-2.425,0.522,2.356Z" transform="translate(-0.267)"/><polygon class="cls-10" points="102.465 132.752 102.683 132.146 105.933 133.314 106.593 134.236 102.465 132.752"/><polygon class="cls-10" points="101.607 130.304 104.53 131.355 105.19 132.277 101.389 130.91 101.607 130.304"/><polygon class="cls-10" points="103.618 134.557 103.836 133.951 107.273 135.187 107.933 136.109 103.618 134.557"/><polygon class="cls-23" points="120.979 95.024 112.691 109.418 110.011 105.699 119.031 91.523 120.979 95.024"/><path class="cls-7" d="M63.565,79.976v6.6A11.965,11.965,0,0,0,75.53,98.541h24.7a2.045,2.045,0,0,1,1.818,2.981L90.319,124.309l10.224,3.314,18.778-32.612a6.733,6.733,0,0,0-5.881-10.092L86.788,81.251l-1.478-2.4V76.2Z" transform="translate(-0.267)"/><path class="cls-5" d="M79.4,23.143a7.8,7.8,0,0,1,.439-2.619c0.153-.366.361-0.708,0.5-1.08,0.437-1.158.181-2.512,0.729-3.621,0.7-1.415,1.966-3.413,3.726-3.536a1.957,1.957,0,0,0,.7-0.1,1.576,1.576,0,0,0,.374-0.283c0.825-.748,3-2.242,4.15-1.473,0.17,0.113.311,0.267,0.488,0.369,0.6,0.348,1.351-.008,2.047-0.056a2.347,2.347,0,0,1,2.105,1.127c0.27,0.446.21,0.629,0.793,0.688,0.457,0.046.918-.032,1.376-0.021a3.049,3.049,0,0,1,1.969.848,4.167,4.167,0,0,1,.941,1.361,1.449,1.449,0,0,0,.781.928c0.271,0.081.561,0.087,0.828,0.181a1.771,1.771,0,0,1,.842.694c1.019,1.489,2.761,2.64,2.94,4.6a1.654,1.654,0,0,1-.757,1.705,2.135,2.135,0,0,1-1.475-.087,1.337,1.337,0,0,1,.6.887,1.628,1.628,0,0,1-1.169,1.112,2.969,2.969,0,0,1-2.068-.029,8.508,8.508,0,0,0-2.7-.762,4.419,4.419,0,0,0-.809.108,32.1,32.1,0,0,0-5.35,2.065c-1.872.746-3.79,1.37-5.705,1.995a9.363,9.363,0,0,1-2.3.54c-0.468.029-.94-0.013-1.406,0.041a13.02,13.02,0,0,1-2.042.533,1.947,1.947,0,0,1-1.085-1.367,5.926,5.926,0,0,1-.174-2.235,4.59,4.59,0,0,1,.219-1.391A3.468,3.468,0,0,0,79.4,23.143Z" transform="translate(-0.267)"/><path class="cls-1" d="M75.6,31.93l8.6,10.225s0.005-7.79,3.63-8.019l-6.867-7.381Z" transform="translate(-0.267)"/><path class="cls-1" d="M101.176,22.659a42.875,42.875,0,0,1-1.659,4.547c-0.44.976-.472,4.723-2.046,5.945-0.091.071-1.88-1.312-1.948-1.217-0.141.2-1.3,1.315-2.418,2.37a3.685,3.685,0,0,1-4.545.413c-3.412-2.221-9.236-5.973-9.355-5.788L87.654,15.8Z" transform="translate(-0.267)"/><path class="cls-5" d="M79.143,28.774a1.6,1.6,0,0,1,.022-1.045c0.206-1.1.557-2.195,0.869-3.262a26.346,26.346,0,0,1,1.27-3.549,11.6,11.6,0,0,1,3.155-4.28,17.4,17.4,0,0,1,2.811-1.726,4.466,4.466,0,0,1,4.247-.294,8.073,8.073,0,0,1,2.188.809c0.989,0.6,1.709,1.629,2.787,2.056a42.058,42.058,0,0,0,4.274,1.08c1.3,0.364,1.406,1.926,1.319,3.084a3.672,3.672,0,0,1-.479,1.673,3.417,3.417,0,0,1-1.049,1.206l-0.085-.226-0.323-.143c-1.379-.225-2.457-1.343-3.8-1.714a4.531,4.531,0,0,0-4.281,1.309,6.536,6.536,0,0,0-1.391,2.162,8.841,8.841,0,0,0-.4,1.267,2.3,2.3,0,0,1-.133.65,1.215,1.215,0,0,1-.644-0.035,0.826,0.826,0,0,1-.557-0.282,1.034,1.034,0,0,1-.082-0.77,9.535,9.535,0,0,0,.142-4.091,2.093,2.093,0,0,0-2.6-1.136,1.586,1.586,0,0,0-1.036.825,1.991,1.991,0,0,0,.067,1.531c0.364,0.929.742,1.844,1.079,2.788a0.531,0.531,0,0,1-.274.809,3.772,3.772,0,0,1-1,.447,5.536,5.536,0,0,1-1.951.093L82.5,27.882a2.549,2.549,0,0,1-.413-0.092c-0.294-.1-0.359-0.246-0.636,0a0.9,0.9,0,0,0-.3.67,4.1,4.1,0,0,1,.062.695,0.153,0.153,0,0,1-.042.094,0.17,0.17,0,0,1-.111.029c-0.33.007-.646,0.107-0.976,0.1a1.133,1.133,0,0,1-.909-0.548C79.162,28.809,79.152,28.792,79.143,28.774Z" transform="translate(-0.267)"/><path class="cls-10" d="M75.6,31.93l-8.155,4.4a5.033,5.033,0,0,0-2.133,2.219l-3,6.143a16.866,16.866,0,0,0-1.677,8.534c0.367,5.5.564,11.007,0.846,16.507q0.312,6.085.624,12.171,0.116,2.272.233,4.544c0.028,0.536-.177,2.1.131,2.556a0.884,0.884,0,0,1,.013.311c8.33,6.643,17.189-9.724,25.3-8.111,0.115,0.023.008-3.845,0-4.393-0.011-.712,0-1.417-0.05-2.135-0.077-1.078-.219-2.158-0.261-3.238-0.088-2.254-.193-4.509-0.275-6.763a13.971,13.971,0,0,1,.2-1.869,6.652,6.652,0,0,1,.11-1.413,8.59,8.59,0,0,0,.1-3.238,10.5,10.5,0,0,1-.165-1.935,12.289,12.289,0,0,0,.129-1.621c-0.036-1.255-.232-2.5-0.376-3.743-0.11-.946-0.094-1.885-0.163-2.83a13.409,13.409,0,0,0-.649-2.716,12.17,12.17,0,0,0-2.781-5.078Z" transform="translate(-0.267)"/><path class="cls-23" d="M67.811,74.458a4.182,4.182,0,0,1-3.67-4.486L66.366,42.2H78.012L75.6,67.731l11.907,4.217c0.059,0.908.159,1.817,0.224,2.723,0.051,0.718.038,1.423,0.05,2.135,0,0.244.027,1.149,0.042,2.074Z" transform="translate(-0.267)"/><path class="cls-10" d="M78.012,40.913L75.6,66.442l21.867,7.745-0.617,5.4L67.811,73.169a4.183,4.183,0,0,1-3.67-4.486l2.224-27.77H78.012Z" transform="translate(-0.267)"/><path class="cls-24" d="M117.1,83.485h0a0.9,0.9,0,0,0,1.254-.195L131.49,65.5a0.9,0.9,0,0,0-.195-1.254h0a0.9,0.9,0,0,0-1.254.195L116.906,82.231A0.9,0.9,0,0,0,117.1,83.485Z" transform="translate(-0.267)"/><path class="cls-24" d="M89.039,81.957l29.752,3.593a1.285,1.285,0,0,0,1.43-1.122h0A1.286,1.286,0,0,0,119.1,83L89.347,79.405a1.285,1.285,0,0,0-1.43,1.122h0A1.285,1.285,0,0,0,89.039,81.957Z" transform="translate(-0.267)"/><path class="cls-25" d="M88.052,80.118a1.324,1.324,0,0,0,1.075.735l29.752,3.593a1.273,1.273,0,0,0,1.281-.565,1.267,1.267,0,0,1,.06.548,1.285,1.285,0,0,1-1.43,1.122L89.039,81.957a1.285,1.285,0,0,1-1.122-1.43A1.269,1.269,0,0,1,88.052,80.118Z" transform="translate(-0.267)"/><rect class="cls-26" x="97.019" y="80.353" width="0.907" height="2.365" transform="translate(4.573 168.53) rotate(-83.115)"/><rect class="cls-26" x="94.236" y="80.017" width="0.907" height="2.365" transform="translate(2.454 165.468) rotate(-83.113)"/><rect class="cls-26" x="113.992" y="82.403" width="0.907" height="2.365" transform="translate(17.472 187.181) rotate(-83.113)"/><polygon class="cls-7" points="83.339 40.227 81.66 44.166 75.337 31.93 83.339 40.227"/><polygon class="cls-7" points="83.339 40.227 84.318 43.36 84.447 38.048 83.339 40.227"/><g id="_Group_" data-name="&lt;Group&gt;"><path id="_Path_" data-name="&lt;Path&gt;" class="cls-14" d="M166.974,3.351V18.006a3.351,3.351,0,0,1-3.351,3.351h-1.544v7.955a0.378,0.378,0,0,1-.668.243l-8.494-8.2H135.428a3.351,3.351,0,0,1-3.351-3.351V3.351A3.351,3.351,0,0,1,135.428,0h28.2A3.351,3.351,0,0,1,166.974,3.351Z" transform="translate(-0.267)"/><path id="_Path_2" data-name="&lt;Path&gt;" class="cls-27" d="M146.487,4.211h-17.48v13.8a3.351,3.351,0,0,0,3.351,3.351h17.48V7.562A3.351,3.351,0,0,0,146.487,4.211Z" transform="translate(-0.267)"/><path id="_Path_3" data-name="&lt;Path&gt;" class="cls-10" d="M121.447,7.562V22.217a3.351,3.351,0,0,0,3.351,3.351h1.544v7.955a0.378,0.378,0,0,0,.668.243l8.494-8.2h10.012a3.351,3.351,0,0,0,3.351-3.351V7.562a3.351,3.351,0,0,0-3.351-3.351H124.8A3.351,3.351,0,0,0,121.447,7.562Z" transform="translate(-0.267)"/></g><g id="_Group_2" data-name="&lt;Group&gt;"><path id="_Compound_Path_" data-name="&lt;Compound Path&gt;" class="cls-18" d="M138.828,15.035a3.843,3.843,0,0,1-.6,2.119,3.7,3.7,0,0,1-1.616,1.407,0.782,0.782,0,0,0,.308.276,0.915,0.915,0,0,0,.438.113,1.409,1.409,0,0,0,.444-0.07,1.146,1.146,0,0,0,.345-0.167,1.592,1.592,0,0,0,.4-0.444l0.875,1.049a3.063,3.063,0,0,1-2.325.984,2.545,2.545,0,0,1-1.276-.357,2.4,2.4,0,0,1-.963-1.005,3.884,3.884,0,0,1-2.822-1.12,3.735,3.735,0,0,1-1.146-2.785,3.735,3.735,0,0,1,1.146-2.785,4.118,4.118,0,0,1,5.645,0A3.734,3.734,0,0,1,138.828,15.035Zm-1.72.005a2.47,2.47,0,0,0-.648-1.725,2.142,2.142,0,0,0-3.192,0,2.614,2.614,0,0,0,0,3.445,2.153,2.153,0,0,0,3.192,0A2.451,2.451,0,0,0,137.108,15.04Z" transform="translate(-0.267)"/></g><g id="_Group_3" data-name="&lt;Group&gt;"><path id="_Compound_Path_2" data-name="&lt;Compound Path&gt;" class="cls-10" d="M158.045,14.991h-1.417V11.323a11.906,11.906,0,0,1-2.3,2.461,12.759,12.759,0,0,0-.923-1.028v1.705a3.037,3.037,0,0,0,.99.612,4.092,4.092,0,0,0,1.06.259c0.332,0.031.941,0.047,1.823,0.047q1.658,0,3.967-.084-0.273.724-.514,1.448-4.083.016-5.578-.063a3.43,3.43,0,0,1-2.43-1.081q-0.409.441-1.27,1.406l-0.661-1.564,1.207-1.1V11.706H150.95V10.321h2.456v2.272a9.254,9.254,0,0,0,3.2-4.14h-2.587V7.162h6.9V8.453h-2.781a13.491,13.491,0,0,1-.625,1.406h0.541v0.782l0.693-.572q1.207,1.144,2.55,2.55l-1.175,1.039q-1.249-1.527-2.068-2.44v3.773Zm-5.762-8.239q0.766,0.966,1.49,1.973l-1.3.85q-0.609-1.028-1.364-2.12Z" transform="translate(-0.267)"/></g><path class="cls-7" d="M32.581,95.907h0a3.085,3.085,0,0,1-2.312,1.624L15.1,99.618l-1.828-.684A3.506,3.506,0,0,1,11,95.651h0a3.506,3.506,0,0,1,.712-2.117l1.4-1.848Z" transform="translate(-0.267)"/><path class="cls-10" d="M32.6,95.408h0a2.945,2.945,0,0,1-2.207,1.55L15.911,98.95,14.167,98.3a3.347,3.347,0,0,1-2.174-3.134h0a3.346,3.346,0,0,1,.679-2.021l1.337-1.764Z" transform="translate(-0.267)"/><path class="cls-7" d="M11.451,81.772L13.1,80.4a3.3,3.3,0,0,1,2.288-.759L40,80.956V77.482L59.491,85.99v0.688a9.869,9.869,0,0,1-9.869,9.869l-7.027.538-9.753-.507L11.418,91.452a3.854,3.854,0,0,1-2.069-2.906L9.211,87.523A6.374,6.374,0,0,1,11.451,81.772Z" transform="translate(-0.267)"/><path class="cls-23" d="M27.927,94.119l9.753,0.507,7.027-.538a9.869,9.869,0,0,0,9.869-9.869V83.843l4.915,2.146v0.688a9.869,9.869,0,0,1-9.869,9.869l-7.027.538-9.753-.507L11.418,91.452a3.591,3.591,0,0,1-1.668-1.681Z" transform="translate(-0.267)"/><path class="cls-1" d="M46.314,39.994l5.78-5.4L45.785,27.84s-7.641,4.731-5.78,5.4C43.593,34.526,46.314,39.994,46.314,39.994Z" transform="translate(-0.267)"/><path class="cls-1" d="M30.272,20.973a23.462,23.462,0,0,1,.684,8c-0.047.38,1.711-.436,1.9-0.1a12.073,12.073,0,0,0,2.461,3.235c1.4,1.219,3.462,2.062,5.118.92l2.7-1.86a8.138,8.138,0,0,0,3.19-4.416l1.442-4.934-8.96-5.4-6.912-1.331a4.184,4.184,0,0,0-1.642,2.172A5.593,5.593,0,0,0,30.272,20.973Z" transform="translate(-0.267)"/><path class="cls-14" d="M45.206,38.717L39.639,52.654a4.159,4.159,0,0,0,.578,3.937l0.765,1.018,1.1,8.218L37.977,81.355c4.992-.922,13.834,10.632,22.9,7.56L59.951,67.67,61.641,46.7l-6.6-13.209H51.066Z" transform="translate(-0.267)"/><polygon class="cls-14" points="46.244 41.635 45.782 56.918 55.383 56.918 56.689 43.401 54.692 40.56 46.244 41.635"/><path class="cls-24" d="M11.77,80.477h0a0.44,0.44,0,0,1-.6-0.166L0.325,61.13a0.44,0.44,0,0,1,.166-0.6h0a0.44,0.44,0,0,1,.6.166L11.936,79.877A0.44,0.44,0,0,1,11.77,80.477Z" transform="translate(-0.267)"/><path class="cls-24" d="M34.088,80.8l-23.577.117a1.011,1.011,0,0,1-1.016-1.006h0A1.012,1.012,0,0,1,10.5,78.894l23.577-.116a1.012,1.012,0,0,1,1.016,1.006h0A1.012,1.012,0,0,1,34.088,80.8Z" transform="translate(-0.267)"/><path class="cls-25" d="M35.026,79.452a1.041,1.041,0,0,1-.907.477l-23.577.117a1,1,0,0,1-.951-0.558,1,1,0,0,0-.1.423,1.011,1.011,0,0,0,1.016,1.006L34.088,80.8a1.012,1.012,0,0,0,1.006-1.016A1,1,0,0,0,35.026,79.452Z" transform="translate(-0.267)"/><rect class="cls-26" x="26.606" y="79.351" width="1.861" height="0.713" transform="translate(-0.652 0.134) rotate(-0.277)"/><rect class="cls-26" x="28.81" y="79.34" width="1.861" height="0.713" transform="translate(-0.669 0.151) rotate(-0.289)"/><rect class="cls-26" x="13.155" y="79.417" width="1.861" height="0.713" transform="translate(-0.664 0.071) rotate(-0.285)"/><path class="cls-28" d="M29.209,15.82a12.331,12.331,0,0,1,1.914-3.934A5.167,5.167,0,0,1,33.43,9.948C35.889,9,38.419,9.315,40.977,9.719a9.7,9.7,0,0,1,4.427,1.7l4.285,3.112c1.175,0.853,2.536,1.452,3.443,2.626a10.1,10.1,0,0,1,1.307,2.618c0.5,1.309.9,2.733,1.525,3.987a22.422,22.422,0,0,0,1.894,2.4,14.377,14.377,0,0,1,2.882,7.357c0.043,0.988-.069,1.977-0.024,2.965,0.085,1.888.884,3.407,1.437,5.158,0.512,1.62.6,3.355,1.283,4.923,0.527,1.206,1.382,2.247,1.9,3.457a6.47,6.47,0,0,1,.091,4.826,5.566,5.566,0,0,0,.964,4.542,5.723,5.723,0,0,1-4.379-.22,12.424,12.424,0,0,1-3.618-2.639,8.75,8.75,0,0,1-2.242-3.1,18.417,18.417,0,0,0-.887-2.779c-0.824-1.467-2.72-2.22-3.2-3.832-0.571-1.913,1.151-4.144.131-5.86a8.261,8.261,0,0,0-1.654-1.569,15.542,15.542,0,0,1-2.267-3.533c-0.76-1.29-.509-3.043-0.574-4.482a2.785,2.785,0,0,0-.443-1.621,3.1,3.1,0,0,0-1.873-.878c-1.45-.315-3.029-0.777-3.823-2.031-0.643-1.017-.612-2.329-1.144-3.408-1.079-2.186-3.567-2.875-5.766-3.049a6.478,6.478,0,0,1-3.178-.929A5.887,5.887,0,0,1,29.329,17.8,2.869,2.869,0,0,1,29.209,15.82Z" transform="translate(-0.267)"/><path class="cls-1" d="M46.665,56.918v11.75l-16.672,6.6-6.522-2.3-5.145,1.075-1.459,2.15v2.448h0.921l1.152-1.911,2.233-.307,2.835,2.218,9.7,0.149,4.326-.5L51.5,76.079c1.028-.249,2.958-1.536,3.15-3.147V56.918H46.665Z" transform="translate(-0.267)"/><path class="cls-29" d="M22.781,77.414l9.7,0.149h4.2l12.93-3.133a4.986,4.986,0,0,0,3.812-4.846L52.7,57l1.949-.077V72.932c-0.192,1.611-2.122,2.9-3.15,3.147L38.033,78.293l-4.326.5-9.7-.149-2.835-2.218Z" transform="translate(-0.267)"/></svg>